<?xml version="1.0" encoding="utf-8"?>
<!-- Generator: Adobe Illustrator 27.0.0, SVG Export Plug-In . SVG Version: 6.00 Build 0)  -->
<svg version="1.1"
	 id="svg1" xmlns:svg="http://www.w3.org/2000/svg" xmlns:sodipodi="http://sodipodi.sourceforge.net/DTD/sodipodi-0.dtd" xmlns:inkscape="http://www.inkscape.org/namespaces/inkscape"
	 xmlns="http://www.w3.org/2000/svg" xmlns:xlink="http://www.w3.org/1999/xlink" x="0px" y="0px" viewBox="0 0 740 136"
	 style="enable-background:new 0 0 740 136;" xml:space="preserve">
<style type="text/css">
	.st0{fill:#800000;}
	.st1{fill:#4D4D4D;}
</style>
<sodipodi:namedview  bordercolor="#000000" borderopacity="0.25" id="namedview1" inkscape:current-layer="layer1" inkscape:cx="467.38023" inkscape:cy="387.82615" inkscape:deskcolor="#d1d1d1" inkscape:document-units="mm" inkscape:pagecheckerboard="0" inkscape:pageopacity="0.0" inkscape:showpageshadow="2" inkscape:window-height="1005" inkscape:window-maximized="0" inkscape:window-width="1728" inkscape:window-x="0" inkscape:window-y="38" inkscape:zoom="0.70392366" pagecolor="#ffffff">
	</sodipodi:namedview>
<g id="layer1" inkscape:groupmode="layer" inkscape:label="Layer 1">
	<path id="path1" class="st0" d="M32.9,17.1c-2.2-0.4-3.6-0.5-4.2-0.5h-0.5c-0.3,0.1-1,0.3-2.3,0.4c-1.4,0.1-2.2,0.3-2.3,0
		c0-0.1-0.9,0.3-2.4,1c-0.4,0.3-0.8,0.3-1.1,0s-1.7,0.1-3.8,1.1l-0.6,1.4l-0.5,2.8c2.8,1.5,4.5,2,5,1.7c0.5-0.4,0.9-0.5,0.9-0.6
		c1.8,1.3,2.7,1.8,2.7,1.9c0.1,0.1,0.6,0.3,1.8,0.4c-1.1,1.4-1.8,2.2-1.8,2.2s-0.4,0.9-1,2.7c2.4,1,3.3,2,2.7,2.8
		c-0.6,0.9-1.1,1.9-1.8,2.8c-1.1,2-1.4,3.4-0.5,4.2c0.8,0.8,1.9,1.9,3.3,3.6c-0.6,0-1.4,0.3-2.2,0.6c-0.9,0.5-0.8,1.5,0.1,2.9
		c0.4,0.9,0.6,1.1,1,1c0.1,0,0.5,1.1,1.3,3.6l-1,0.6c-0.1,0-1,0.4-2.9,1.1l0.9,1l1.7,0.9c0.1,0.1-0.1,0.4-0.8,0.5
		c-0.5,0.1-0.4,0.9,0.4,2c1,1.3,1.1,2,0.6,2.4c-0.6,0.1-0.9,0.4-1,0.5c-1,0.5-1.5,0.9-1.5,1.3c-0.1,0.4-0.1,0.9-0.1,1.8
		c1.1,1.3,2,2.2,2.7,2.5c0.5,0.3,0.9,0.9,1.1,1.8c-2.2,1-3.3,1.7-3.4,1.8c0,0.1-0.8,0.6-2.2,1.7c1.1,0.1,1.8,0.1,1.8,0.3
		c0.1,0,0.5,0.1,1.3,0.5c0.3,0.1,0.4,0.4,0.1,0.9c-0.3,0.4,0.4,0.8,1.9,1.3c0.1,0.1,0.1,0.4,0,0.5c-0.3,0-1.4,0.9-3.6,2.5
		c0.3,0.8,0.5,1,0.6,1c0.1,0,1,0.5,2.7,1.4c-2.4,1.4-3.9,2.2-4.3,2.3c-0.4,0.1-0.9-0.3-1.5-1.1c-0.1,0-0.5,0-1.3-0.1
		c-0.8-0.1-0.8,0.1-0.1,0.8c-0.6,0.4-1.1,0.6-1.5,1c-0.4,0.3-0.3,0.6,0.5,1.4c0,0.1-0.1,0.3-0.6,0.3c-0.5,0-1.5,0.6-2.9,2.2
		c0.4,0.3,1,0.8,1.7,1.3c0.6,0.4,0.3,1.1-1.1,2.2l1.5,1c0.4,0.3,0.1,0.9-0.6,1.9c-0.1,0.1,0.3,0.5,0.9,0.9c0.6,0.5,1.5,1,2.4,1.5
		c2.8-1,4.5-1.4,4.8-1c0.4,0.4,1.3,0.9,2.5,1.4c0.4,0.1,0.6,0,0.6-0.4c0.3-0.5,1.3-0.6,3.3-0.5c0.8,0.1,1.3,0.1,1.3,0.3
		c0.1,0.3,1.4,0.4,3.8,0.5c0.9,0,1.5,0,1.7-0.1c0.1-0.1,1.3,0,3.6,0.3c1.1,0.1,2,0.3,2.9,0.3c1.4,0,2.5-0.3,3.4-0.5
		c1.5-0.6,2.5-1,3.1-1.1c0.1-0.1,1.7-0.3,4.5-0.5c2.8-0.1,4.5-0.3,5-0.4c0.9,0,1.3-0.1,1.4-0.3c0,0,2-0.4,6.1-0.9
		c-0.3-0.1-0.4-0.5-0.5-1c0-0.6,1.4-1.8,4.2-3.4c0-0.4,0-0.6,0-0.8c0,0-0.4-0.5-1.1-1.4c-0.1-0.1-0.1-0.4,0-0.8
		c0.3-0.3,1.1-0.8,2.7-1.3c0.5-0.1,0.8-0.4,1-0.8c0.3-0.3,0.1-1-0.4-2.3c-0.1-0.8-0.4-1.1-0.5-1.4c-0.1-0.3,0.3-0.8,1.3-1.5
		c0.3-0.1,0.4-0.5,0.1-1c-0.1-0.5,0.1-1.4,0.5-2.5v-0.1c0-0.4-0.3-0.9-0.9-1.5c-0.6-0.8-1-1.4-1.4-1.7c-0.3-0.4-0.4-0.8-0.3-1
		c0.1-0.1-0.5-0.6-2-1.3c1.4-0.4,2.2-0.5,2.3-0.5c0-0.1,0.6-0.8,1.9-2c-0.4-1.9-0.8-3.1-1-3.3c-0.3-0.1-1.3-0.6-2.8-1.4
		c1-1.5,1.5-2.3,1.5-2.3c0-0.1,0-1,0.1-2.8c-1.9-1.9-3.1-3.1-3.3-3.6c-0.4-0.4-0.6-1-0.8-1.7c1.8-2.2,2.5-3.3,2.3-3.6
		c-0.5-0.3-0.3-1.1,0.6-2.4c0.1-0.1,0.1-0.4,0-0.6c-0.1-0.3,0.1-0.9,0.6-1.9c0.4-0.9,0.6-1.4,0.8-1.4c0.1,0,0.1-0.8,0-2.3
		c-1-0.8-1.5-1.3-1.5-1.3S70,38.5,69.7,38c-0.1-0.3,0-0.5,0.5-0.8c0.5-0.4,0.4-1.3-0.3-2.5c1-0.9,1.5-1.4,1.4-1.7
		c0-0.3-0.3-0.8-0.5-1.5c-0.1-0.4-0.5-0.5-1-0.6c-0.6,0-0.6-0.6-0.3-2c0.1-0.4,0.4-0.6,0.5-0.6c0.3-0.1,0.3-0.4-0.1-0.8
		c-1.1-2-1.8-3.2-1.8-3.2c0-0.1-0.5-0.5-1.4-1.1c-0.3-0.1-0.3-0.4,0-0.8c0.1-0.3-0.4-1.3-1.5-3.1c-0.8-0.4-1.1-0.6-1.1-0.6
		s-0.9-0.1-2.5-0.3c-1.3-0.1-2-0.1-2,0c-0.1,0-0.9-0.3-2.5-0.9c-0.8-0.3-1.3-0.3-1.3,0c-0.1,0.1-1.3,0.1-3.7,0.3
		c-0.5,0-1.8,0-3.8-0.3c-2-0.3-4.1-0.3-6.1-0.3c-1.3,0.1-1.9,0.1-2,0.3c0,0.1-1-0.1-2.8-0.5c-0.8-0.1-1.1-0.1-1.3,0.3
		C36,17.6,35,17.5,32.9,17.1L32.9,17.1z M51.5,25.7c1.8-0.5,2.7-0.4,2.7,0.4c0,0.6,0,1,0.3,1.1c1.7,0.5,2.7,0.8,3.1,0.8
		c0.3,0,0.5,0.1,0.9,0.4l1,1.3c0.1,0,0.9,0.6,2.4,2c-0.1,0.6-0.1,1-0.3,1c0,0-0.4,0.3-1,1.1c0.8,1.7,0.9,2.4,0.4,2.5
		c-0.5,0-0.8,0.4-0.9,0.9c-0.1,1.5,0,2.2,0.1,2.2c0.1,0.1,0.4,0.6,0.8,1.7c0.4,0.8,0.5,1.3,0.6,1.3c0,0-0.1,0.6-0.3,1.8
		c-0.5,1.3-0.9,1.9-1.1,1.8c-0.1,0-0.4,0.1-0.9,0.1c-1.1,0.8-2,1.4-2.8,1.9c-0.8,0.4-1.4,0.6-2.2,0.5c-1.9-0.3-2.9-0.3-2.9,0
		c-0.1,0.1-0.5,0.3-1.3,0.4c-2,0.1-3.2,0.1-3.4,0c0-0.3-0.3-0.3-1-0.1c-1.8,0.3-2.8,0.4-2.9,0.4c-0.1,0-2.8,0-8-0.3
		c0-1.4-0.1-2.3-0.4-2.5c-0.3-0.3-0.3-0.5-0.1-0.9c0.3-0.3,0.4-0.8,0.8-1.3c0.3-0.5,0.4-1.4,0.3-2.5c-0.1-1.4,0-2.3,0.3-2.7
		c0.3-0.5,0.4-0.8,0.1-1c-1-0.9-1.4-1.4-1.4-1.8c-0.1-0.3-0.1-0.6,0.1-1c0.8-1.4,0.9-2,0.4-2.2c-0.6-0.1-0.9-0.4-0.6-0.8
		c0.6-0.8,0.9-1.8,1-2.7c0.1-0.9,0.5-1.9,0.9-2.9c3.1-0.6,4.6-0.9,4.7-0.9c0.1,0.1,0.8,0.4,1.8,0.8c0.4,0.1,1,0.3,2.2,0.5
		c0.9,0.3,1.8,0.1,2.7-0.1c1.8-0.6,2.8-1,2.9-0.9C50.4,26,50.8,25.9,51.5,25.7L51.5,25.7z M40.4,58.8c1.3-0.1,1.9-0.1,2,0
		c0.1,0.3,0.6,0.5,1.3,0.5c1.9,0,2.8,0,2.9,0c0.1,0,0.8-0.1,2-0.1c1.7-0.1,2.4-0.3,2.5-0.3h3.3c1,1.1,1.7,2,1.8,2.4
		c0.1,0.5,0.4,0.6,0.8,0.5c0.8-0.4,1.3-0.5,1.3-0.5c0.1-0.1,1.4,0.1,3.6,0.9l-0.5,0.6c0,0.1-0.5,0.5-1.4,1.4
		c0.4,1.3,0.5,2.2,0.4,2.4c-0.3,0.4-0.3,0.5,0,0.4c0.3,0,0.6-0.1,1-0.1c0.4-0.1,0.8,0.5,1.1,1.9l-1.5,0.8c0,0-0.4,0.5-0.9,1.4
		c0.4,1,0.6,1.7,0.6,1.7c0,0.1,0.4,0.9,1,2.3c-0.1,0-0.6,0-1.3,0.1c-0.8,0.1-1,0.3-0.9,0.4c0.5,0.6,0.8,1,0.9,1
		c0.3,0.1,0.1,0.9-0.1,2.3l1.4,0.4c0,0,0.3,0.1,0.5,0.3c-2.9,1.1-4.7,1.7-5.1,1.5c-0.5-0.3-0.8-0.1-0.8,0.3l-0.4,0.9
		c0,0-0.1,0.8-0.4,2.2c0,0-0.5,0.1-1.7,0.4C53,84.9,52,85,51,85c-2.3,0-3.4-0.1-3.4-0.4c0-0.3-0.4-0.4-1-0.4
		c-1.7,0.1-2.7,0.3-2.8,0.4c-0.1,0.3-0.4,0.4-0.6,0.4c-1.8-0.4-2.7-0.5-2.7-0.6L39,82.9c-1.8,0-2.7,0-2.8,0c-0.1,0-0.4,0-0.9,0
		c0.6-1.9,1-3.1,1-3.4c0.1-0.3,0.1-1.1,0-2.5c-0.3-2.8-0.3-4.3-0.3-4.5c0-0.1,0-0.4-0.1-0.8c-0.4-0.9-0.6-1.5-0.6-1.7
		c0-0.1,0.5-1.3,1.4-3.3c-0.4-0.3-1-0.5-2-0.8c-0.9-0.4-0.6-1.7,0.6-3.8c0.6-1,0.9-1.5,0.8-1.7c-0.1-0.1-0.4-0.6-0.6-1.5
		c1.1,0,2,0,2.7,0.1C38.7,59,39.4,58.9,40.4,58.8L40.4,58.8z M119.3,16.4c-3.1,0.1-4.6,0.1-4.7-0.1c0-0.1-1.9-0.3-5.5-0.3h-0.6
		c-0.4,0-0.6,0.1-0.8,0.4c0,0.3-1.1,0.6-3.4,1.1c-0.4,0.1-0.6,0.4-0.9,0.9c-0.3,0.6-0.3,0.9-0.3,0.9c-0.8,2.2-1.1,3.3-1.1,3.4
		c-0.1,0.1,0.1,0.9,0.6,2.3l3.1,1.4c0,0,0.5,0.5,1.8,1.4c0.4,0.3,0.6,0.4,0.6,0.6c0,0.3,1.3,0.4,3.8,0.3c0.4-0.1,0.4,0,0,0.4
		s0,1.8,1.1,4.2c0.4,0.8,0.8,1.4,1.4,1.5c0.6,0.1,0.5,1-0.5,2.7c-0.3,0.5-0.4,0.9-0.3,1.1c0.1,0.4,0.5,1.9,1.1,4.6
		c0.1,0.5-0.1,1.1-0.6,1.8c-0.5,0.9-0.6,2.3-0.5,4.3c0.1,0.9,0.3,1.3,0.6,1.4c0.4,0.3,0,1.1-1.1,2.7c-0.3,0.4-0.4,1.1-0.1,2.4
		c0.3,1.3,0.5,2.4,0.9,3.6c0,0.4,0,0.6-0.3,1c-0.3,0.3-0.6,1.4-1.3,3.2c-0.1,0.5,0.1,0.9,1,1.1c0.9,0.4,1.1,1.5,0.8,3.4
		c-0.3,1.1-0.5,1.7-0.9,1.8c-0.4,0.1-0.5,1.3-0.3,3.6c0.3,3.1,0.3,5.1-0.3,6.1c-0.3,1-0.4,1.8-0.4,2.2c-3.2,1.1-4.8,1.7-4.8,1.7
		c-0.1,0-1.3,0.5-3.3,1.5c-0.5,0.1-0.9,0.5-1.3,1.1c-0.4,0.5-1.3,1.3-2.9,2.3c0.5,1.3,1,2.2,1.3,2.8c0.4,0.6,1.1,2.4,2.5,5.3
		c0.3,0.4,0.5,0.5,0.8,0.5c0.1-0.1,0.6-0.4,1.4-0.8c0.6-0.3,1.3-0.4,2-0.1c0.5,0.1,1.4,0.5,2.5,0.9c1,0.4,1.8,0.3,2.2-0.1
		c0.3-0.4,1.8,0,4.3,1.3c0.3,0.1,0.5,0.1,0.6,0.1c0.3,0,0.4,0,0.6-0.3c0.3-0.3,1.7-1.1,4.2-2.4c0.1-0.1,0.3,0,0.3,0.5
		c0.1,0.6,0,1-0.3,1.3c3.4-0.4,5.3-0.5,5.7-0.5c0.3-0.1,1.7-0.1,4.1-0.1c0.4,0,0.8-0.3,1-0.6c0.3-0.4,1.3-1.3,3.1-2.5
		c0.3-0.3,0.9-0.1,1.7,0.5l1,0.8c1-2.5,1.5-3.9,1.5-4.2c0-0.1-0.4-1.4-1-3.8l-1.8-1.4c0-0.1-1-0.6-2.9-1.4c-1.7-0.6-2.5-1-2.8-1.1
		c-0.1,0-1.1,0.1-2.9,0.6c-1.3-1.8-1.9-2.5-2-2.5c0.1-0.1,0-1-0.4-2.9c-0.3-1.1-0.3-1.9-0.1-2.2c0.3-0.1-0.3-1.5-1.3-4.3
		c-0.1-0.4-0.1-1,0-1.9c0.1-0.9,0.5-2.2,0.9-3.9c0.1-0.5-0.1-1-0.8-1.4c-0.6-0.4-0.8-1.4-0.5-3.3c0.1-0.5,0.4-1,0.9-1.5
		c0.5-0.5-0.3-1.1-2.2-2c0.6-0.9,1.1-1.4,1.3-1.8c0.3-0.3-0.1-0.8-1-1.8c-0.4-0.3-0.3-0.6,0.3-1.1c0.5-0.4,1-1.7,1.5-3.7
		c0.1-0.8-0.1-1.1-0.8-1.1c-0.6-0.1-0.5-1.4,0.3-3.8c0.6-1.5,0.5-2.8,0-3.6c-0.6-0.8-1-1.3-1-1.3c-0.4-0.4-0.3-1.1,0.3-2.4
		c0.6-1.4,1.1-2.4,1.5-3.2c0.3-0.5,0.3-1.1,0-1.9c-0.3-0.6-0.4-2.2-0.4-4.5c1.8,1,2.7,1.4,2.9,1.1c0.1-0.3,0.8-0.6,1.7-1.3
		c1.1-0.8,1.8-1.3,1.9-1.5c0.4-0.3,1.1,0,2.4,0.9c0.4,0.3,0.6,0.1,1-0.3c0.4-0.4,0.5-1,0.5-2.3l2.2-1.7c0.1,0,0.4-0.4,0.8-1.3
		c-1.9-2.3-2.8-3.6-2.9-3.6c0,0-0.4-0.3-1-0.6c-3.6-0.3-5.3-0.4-5.5-0.5c0,0-1,0.1-3.3,0.5c-1.1,0.3-1.7,0.3-1.8-0.1
		C124.4,16.4,122.7,16.2,119.3,16.4L119.3,16.4z M202.2,19.4c-0.6,0.3-1.1,0.1-1.5-0.6c-0.5-0.5-1.4-0.8-2.8-0.8h-0.8
		c-0.8,0.1-1.3,0.1-1.4,0.4c0,0.1-1.4,0.5-4.2,1c-0.8,0.1-1.5,0.1-2.2,0c-0.6-0.3-2-0.6-4.1-1.1c-0.6-0.1-1.1,0-1.7,0.5
		c-0.4,0.5-1.9,1.1-4.6,1.8c-0.8,0.3-1.7,0.8-2.3,1.5c-0.8,0.8-1.5,1.7-2.3,2.5h-0.1l-2.8,4.6c-0.8,1.3-1.1,2.4-1,3.6
		c0.1,1.1,0.3,1.9,0.3,2.3c0.3,1.1,0.3,1.7,0.1,1.8c0,0,0.3,1.1,0.9,3.4c0.3,0.8,0,1.3-0.8,1.5c-0.8,0.3-0.6,1.3,0.4,3.1
		c0.1,0,0.1,0.1,0.3,0.3c0,0.1-0.8,2.4-2.3,6.9c0.4,0.3,0.6,0.3,0.6,0.3l1.8,2.2c0.4,0.4,0.1,0.8-0.5,1.1c-0.6,0.4-1,1.7-1.1,3.7
		c-0.1,0.3,0.1,0.8,0.6,1.3c0.4,0.6,0,1-1.1,1c0.6,0.5,1.1,1,1.5,1.5c0.5,0.4,0.1,1-1,2c-0.4,0.3-0.5,0.6-0.6,1.4
		c0,0.6,0.5,1.9,1.7,3.4c0.3,0.5,0.3,1-0.1,1.7c-0.4,0.5-0.8,2.2-1.1,4.8c0,0.5,0.3,0.9,0.9,1.3c0.5,0.4,0.3,1.7-0.9,3.8
		c-0.6,1.3-0.5,2.7,0.4,3.9c0.9,1.1,1.5,2,2,2.8c-0.1,0,0.3,0.3,1,0.8c0.5,0.4,1,0.8,1.5,1.1c0.1,0,0.8,0.6,1.9,2
		c1.1,1.3,1.9,2,2.2,2.3c0.4,0.4,0.9,0.6,1.5,0.8c0.6,0,2.2,0.4,4.6,1c0.1,0,0.1,0.1,0.1,0.3h0.3c0.4,0,2-0.3,5-0.5
		c1.3-0.1,2-0.3,2-0.4c0.1-0.3,1.5,0,4.3,0.5h6.5c4.5-0.1,6.9-0.1,7.5-0.3c1.1,0,3.2-1.5,6.1-4.3c2.8-2.8,4.6-4.5,5.1-4.8
		c-0.6-0.1-0.8-0.8-0.5-2.2c0.1-1.3,0.8-1.9,1.9-1.8l-0.1-6c0,0-0.3-1.1-0.8-3.2c-0.1-0.5,0-1.1,0.4-1.8c0.3-0.8,0.4-2.3,0.4-4.8
		c-0.1-0.5,0.1-0.9,0.8-1.1c0.1-0.1,0.3-0.3,0.3-0.5c0-0.5-0.4-1.4-1-2.7c-0.4-0.6-0.5-2.3-0.5-5.2c0-3.1,0-5.3,0-7
		c-0.1-5,0-7.5,0.3-7.6c0.3-0.1,0.1-1.1-0.3-3.1c-0.4-1.7-0.4-3.2,0-4.3c0.4-1.1,0.6-1.9,0.8-2.3c0.3-0.5,0.1-1-0.1-1.5
		c-0.1-0.4-0.8-1.9-1.8-4.6c-0.3-0.4-0.6-0.9-1.3-1.3c-0.6-0.3-1.7-1.3-3.1-3.1c-0.5-0.6-1-1.1-1.4-1.5c-0.5-0.4-1.7-1-3.7-1.9
		c-0.4-0.3-1-0.3-1.8,0c-0.6,0.3-2.2,0-4.3-0.8l-0.8-0.1C204.7,18.3,203.6,18.7,202.2,19.4L202.2,19.4z M191.9,26.8
		c1.4-0.1,2.3,0,2.9,0.5c0.8,0.4,1.3,0.6,1.9,0.5c2.7-0.3,4.3-0.5,5-0.9c0.5-0.4,1-0.5,1.4-0.4c2.3,0.3,3.6,0.4,3.7,0.4
		c0.1,0,1.5,0.1,4.2,0.4c0.5,1.3,0.6,2,0.4,2.2c-0.1,0-0.3,0.5-0.5,1.4c-0.4,1.7-0.3,2.4,0.4,2.4c0.5-0.1,1,0.3,1.4,1
		c0.8,1.4,1.1,2.2,1,2.3c-0.1,0.1-0.3,1-0.5,2.8c-0.3,1.3-0.4,2-0.5,2.2c0,0.3,0.4,1,1.3,2.5c-1.1,0.9-1.5,1.4-1.1,1.7
		c0.3,0.3,0.4,0.5,0.3,0.9c-0.6,1.3-1.1,2.3-1.4,2.9c-0.1,0.6-0.1,1,0.1,1.3c1.3,1.1,2,1.9,2,2.5c0,0.5-0.1,1-0.6,1.5
		c-1.3,1.8-1.9,2.7-1.7,2.9c0.3,0.3,0.5,1,1,2.4c0.8,2.4,0.6,3.6-0.3,3.7c-0.9,0-1.3,0.3-1.1,0.8c0.5,1.9,1.1,2.9,1.8,3.1
		c0.6,0.3,0.8,0.5,0.5,0.9c-1.1,2-1.8,3.1-1.5,3.3c0.3,0.3,0.1,0.6-0.3,1.4c-1.3,1.7-1.5,2.7-1,2.9c0.5,0.1,0.6,0.6,0.4,1.5
		c-0.6,1.7-0.9,2.7-1,2.8l-0.4,1.9l-3.4-0.1c0,0-1,0.1-2.8,0.4c-2,0.3-3.3,0.5-3.8,0.5c-0.5,0.1-1.3,0.1-2,0.1
		c-1.8-0.1-2.7-0.3-2.7-0.5c0-0.1-0.4-0.3-1-0.1c-2.4,0.1-3.8,0.5-4.3,1c-0.5,0.6-0.8,0.6-1,0.3c-1.1-1.5-2-2-2.8-1.9
		c-0.8,0.3-1.3,0.1-1.7-0.3c-1-1.4-1.8-2.3-2-2.7c-0.3-0.5-0.4-2.9-0.4-7.4c-0.1-2-0.4-3.3-0.6-3.9c-0.4-0.5-0.5-1-0.3-1.4
		c0-0.1,0.1-0.8,0.5-2c0.4-1.1,0.4-2.2-0.1-3.2c-0.9-1.9-1-3.2-0.3-3.8c0.6-0.8,0.9-1.3,0.8-1.5c-0.9-1.1-1.4-2.4-1.8-3.8
		c-0.5-1.4-0.6-2.2-0.4-2.4l1.7-2.2c1.1-1.4,0.5-2.8-1.9-4.3c1.3-2.7,1.9-4.3,2-5.1c0.1-0.9,0.1-1.5,0-2c-0.4-1.4-0.8-2.3-0.9-2.4
		c0-0.1,0.4-0.9,1.1-2.4c1.4-1.8,2-2.7,2.2-2.7c0-0.1,1.4-0.6,3.9-1.4c2-0.5,3.2-0.6,3.2-0.5C190.9,26.8,191.2,26.8,191.9,26.8
		L191.9,26.8z"/>
	<path id="path2" class="st1" d="M232.6,95.9V97h1.1v-1.2H232.6z M265.5,10c1.5,1.3,3.3,2.1,5.4,2.4v1.1l-0.4,0.8
		c0.3,0,0.4,0.1,0.4,0.4l0.7-0.4h0.7l1.2,0.7l-0.4,1.9v0.4c1.8,0,2.7,0.8,2.7,2.4V22c0,0.2-1,1.4-3,3.5l-1.9-1.2
		c0,0.4-0.5,0.9-1.6,1.6h-1.2l-2.3-1.6h-0.4c-0.2,0-0.8,0.5-2,1.6h-0.7c-1.3-1.8-2.6-2.8-3.9-3.1c0-0.7-0.9-1.5-2.7-2.3
		c-0.5-1.5-0.9-2.3-1.1-2.3c0.3-1.7,2.3-3.7,6.2-6.2h2.3C263.5,11,264.1,10.4,265.5,10L265.5,10z M265,13.5v1.2h1.2v-1.2H265z
		 M262.4,16.2v1.1h1.1v-1.1H262.4z M267.8,16.2v1.1h1.1v-1.1H267.8z M259.6,18.9v1.2h1.2v-1.2H259.6z M265,18.9v1.2h1.2v-1.2H265z
		 M270.4,18.9v1.2h1.2v-1.2H270.4z M262,22.4c0.1,0.5,0.3,0.8,0.7,0.8c0.5,0,0.7-0.3,0.7-0.8v-0.7h-0.7
		C262.2,21.7,262,21.9,262,22.4z M267.8,21.6v1.1h1.1v-1.1H267.8z M257.7,23.9h0.8v1.6h-0.8c-0.5,0-0.7-0.3-0.7-0.8
		C257,24.2,257.3,23.9,257.7,23.9L257.7,23.9z M251.9,34.4h0.8l1.5,2.3h0.8c1-0.8,1.8-1.2,2.3-1.2c1.7,0.5,2.7,0.8,3.1,0.8
		c1.7-0.8,2.9-1.2,3.5-1.2c0.1,0.5,0.7,1.1,1.9,1.6l1.9-1.2h0.4c0.7,0.7,2.2,1.5,4.2,2.4c1,1.8,1.6,3.1,1.6,3.9l-1.6,1.6v1.5
		l1.6,1.6v0.4c0,0.5-0.2,0.8-0.7,0.8c-0.5-0.7-0.8-1.3-0.8-1.9h-1.5c-0.2,0-0.9,0.6-2,1.9h-1.5v-1.6l1.5-1.6v-1.1h-0.7l-1.9,1.5
		h-1.6c0-2-0.9-3-2.7-3c0-0.3-1.4-1.8-4.3-4.3h-0.7c-0.6,0-1,0.6-1.2,1.9h-1.9c0-1.8-0.8-2.7-2.3-2.7h-0.4v-1.6
		C251.2,34.6,251.5,34.4,251.9,34.4L251.9,34.4z M267.8,37.4l-0.4,1.6l0.7,0.4c0.4,0,0.8-0.4,1.2-1.1c0-0.5-0.3-0.8-0.8-0.8
		L267.8,37.4z M243.8,37.4h1.1v1.9H243v-1.1C243.1,37.7,243.4,37.4,243.8,37.4L243.8,37.4z M248.4,37.4h1.9v1.9h-1.9V37.4z
		 M264.3,40.9v0.4c0.1,0.5,0.3,0.8,0.7,0.8h0.4c0.5,0,0.7-0.3,0.7-0.8v-1.1H265C264.5,40.2,264.3,40.5,264.3,40.9L264.3,40.9z
		 M241.1,40.1h1.2v1.1c0,0.5-0.3,0.8-0.8,0.8c-0.3,0-0.7-0.4-1.1-1.2C240.4,40.4,240.7,40.1,241.1,40.1L241.1,40.1z M245.8,40.1h1.9
		v1.1c0,0.5-0.3,0.8-0.8,0.8h-0.4c-0.5,0-0.7-0.3-0.7-0.8L245.8,40.1z M251.2,40.1h1.9v1.1c0,0.5-0.3,0.8-0.8,0.8h-0.4
		c-0.5,0-0.7-0.3-0.7-0.8L251.2,40.1z M256.9,40.1h1.6l0.4,1.9v0.4h-1.6c-0.4,0-0.8-0.4-1.2-1.2v-0.4
		C256.2,40.4,256.5,40.1,256.9,40.1L256.9,40.1z M270.1,40.5v1.2c0.1,0.5,0.4,0.7,0.8,0.7h1.1v-1.2c0-0.5-0.2-0.7-0.7-0.7H270.1z
		 M259.2,42.8h1.9V44l-0.4,0.7C259.8,44.5,259.2,43.8,259.2,42.8L259.2,42.8z M262,45.5h1.9v1.9h-1.2c-0.5,0-0.7-0.3-0.7-0.8
		L262,45.5z M264.7,48.2h1.9v1.9h-1.9V48.2z M270.1,48.2h1.9c0,0.8,0.8,2,2.3,3.5v0.4c0,0.4-0.4,0.8-1.1,1.2c-0.2,0-0.8-0.9-1.6-2.7
		l-1.6-0.4L270.1,48.2z M263.5,51l0.4,0.7v0.4c0,0.5-0.3,0.8-0.8,0.8l-0.4-0.8v-0.4C262.8,51.2,263.1,51,263.5,51z M267.4,51h1.9
		v1.9h-1.9V51z M264.7,53.6h1.9v1.9h-1.9V53.6z M270.1,53.6h1.9v1.9h-1.9V53.6z M267.4,56.4h1.9v1.9h-1.9V56.4z M273.6,56.4l0.4,0.7
		v0.4c0,0.5-0.2,0.8-0.7,0.8h-0.4v-1.2C272.9,56.6,273.1,56.4,273.6,56.4L273.6,56.4z M265,59h1.6V61c-1.3,0.2-1.9,0.6-1.9,1.2v1.6
		h1.9c0.2-1.3,0.6-1.9,1.2-1.9h1.6c0.2,1.3,0.5,1.9,1.1,1.9h0.8c0.5,0,0.7-0.3,0.7-0.8v-0.7l-1.9-1.6V59h2.3c0,1,0.8,2,2.4,3.1v0.7
		c-1,1.2-1.6,1.8-1.6,1.9v0.4c0.5,1.8,0.7,2.8,0.7,3l-1.1,1.6V71c0.7,1,1.1,2.1,1.1,3.5c-0.6,0-1,0.6-1.1,1.9l1.1,1.9
		c0,0.6-0.4,1.6-1.1,3c0,0.5,1.3,1.8,3.9,3.9c0.2,0,1-0.5,2.3-1.6h0.4c1.2,1,2.1,1.6,2.7,1.6c1.2-0.8,1.9-1.2,2.3-1.2l1.9,1.2h0.4
		c0.7,0,1.8-0.3,3.5-0.8c1,0.5,2,0.8,3.1,0.8l0.7-0.4c0.1,0.5,0.4,0.8,0.8,0.8l-0.4,0.7c0.3,0.5,0.4,0.9,0.4,1.2h0.7l1.9-1.6
		l0.7,1.2V88l-0.7,1.2v1.1l0.7,1.2c0,0.4-0.4,0.8-1.1,1.2c-0.7-0.5-1.1-0.8-1.2-0.8h-0.7c-0.9,1.5-1.8,2.3-2.7,2.3l-3.5,0.4
		l-1.9-0.4c-1.3,0.8-2.2,1.2-2.7,1.2l-2.3-1.2c-0.2,0-2.1,0.1-5.4,0.4h-0.8c-2.7,0-4.1,0-4.2,0h-1.2l-1.6,1.1l-3.4-1.6
		c-2,1-3.3,1.6-3.9,1.6c0-0.4-0.4-0.7-1.1-1.1h-0.8v2.3h-2.7l-2.3-2.7h-1.9v-2.3h-1.2c0,1.5-1.4,2.6-4.2,3.5l-2.7-1.2
		c-1.4,0.3-2.4,0.4-3.1,0.4c-2.3-0.5-3.4-1.6-3.4-3.5c0.4,0,0.7-0.4,1.1-1.2v-1.2l-0.4-0.7c1.9,0,3.6-0.9,5-2.7c0.4,0,1.4-0.3,3-0.8
		c1,0.5,1.9,0.8,2.7,0.8l1.9-1.2h1.6c1.9,0.9,3.4,2,4.2,3.5h0.4l1.6-2.3c2,0,3.6-1.3,4.7-3.9l-0.4-2.3c0.3-1.4,0.4-2.4,0.4-3.1
		c0-0.2-0.5-1-1.6-2.3v-0.4l1.6-1.9v-1.2c-1-1.1-1.6-1.8-1.6-1.9v-0.7c1.3-1.1,1.9-2.2,1.9-3.1c-1.3,0-1.9-0.5-1.9-1.6
		C263.9,60.3,264.7,59,265,59L265,59z M267.4,65.6c0.1,0.5,0.3,0.7,0.7,0.7c0.4,0,0.8-0.4,1.2-1.1c0-0.5-0.3-0.8-0.8-0.8
		C268.1,64.5,267.8,64.8,267.4,65.6L267.4,65.6z M264.3,67.9l1.2,1.6c1-0.4,1.5-0.8,1.5-1.2v-0.4c0-0.4-0.4-0.8-1.1-1.2h-0.4
		C265.3,66.8,264.9,67.2,264.3,67.9L264.3,67.9z M269.7,68.3v0.8c0.2,0,0.6,0.1,1.2,0.4c0.5-0.2,0.9-0.4,1.1-0.4v-1.6
		c-0.5,0-0.7-0.1-0.7-0.4C270.2,67.6,269.7,67.9,269.7,68.3L269.7,68.3z M267.4,70.2v0.4c0,0.3,0.4,0.7,1.1,1.1
		c0.4,0,0.8-0.4,1.2-1.1c-0.2-0.5-0.4-0.9-0.4-1.2h-1.2C267.6,69.6,267.4,69.8,267.4,70.2L267.4,70.2z M264.7,73.3
		c0,0.4,0.4,0.8,1.2,1.2c0.5,0,0.7-0.3,0.7-0.8c-0.2-0.5-0.4-0.9-0.4-1.1h-0.7C264.9,72.7,264.7,72.9,264.7,73.3L264.7,73.3z
		 M270.1,73.3c0.1,0.5,0.4,0.7,0.8,0.7h0.7v-0.7c0-0.5-0.2-0.7-0.7-0.7C270.3,72.7,270.1,72.9,270.1,73.3z M267.4,76
		c0,0.4,0.4,0.8,1.1,1.2c0.5,0,0.8-0.2,0.8-0.7V76c0-0.5-0.3-0.7-0.8-0.7h-0.4C267.6,75.4,267.4,75.6,267.4,76L267.4,76z
		 M270.1,78.8c0.1,0.5,0.4,0.7,0.8,0.7h0.7v-0.7c0-0.5-0.2-0.7-0.7-0.7C270.3,78.1,270.1,78.3,270.1,78.8z M265,78.4v1.1h1.2v-1.1
		H265z M267.8,81.1v1.2h1.1v-1.2H267.8z M265,83.8v1.1h1.2v-1.1H265z M270.4,83.8v1.1h1.2v-1.1H270.4z M246.1,86.5v1.2h1.2v-1.2
		H246.1z M251.2,87.3c0.1,0.5,0.3,0.7,0.7,0.7c0.5,0,0.8-0.2,0.8-0.7v-0.8h-0.8C251.4,86.6,251.2,86.8,251.2,87.3z M262.4,86.5v1.2
		h1.1v-1.2H262.4z M267.8,86.5v1.2h1.1v-1.2H267.8z M273.2,86.5v1.2h1.1v-1.2H273.2z M278.6,86.5v1.2h1.1v-1.2H278.6z M284,86.5v1.2
		h1.6v-1.2H284z M289,87.3c0.1,0.5,0.4,0.7,0.8,0.7c0.5,0,0.7-0.2,0.7-0.7v-0.8h-0.7C289.2,86.6,289,86.8,289,87.3z M248.8,89.6v0.7
		h0.8c0.5,0,0.7-0.2,0.7-0.7c0-0.5-0.2-0.8-0.7-0.8C249.1,88.9,248.8,89.1,248.8,89.6z M286.7,88.8v1.6h0.8c0.5,0,0.7-0.2,0.7-0.7
		c0-0.5-0.2-0.8-0.7-0.8L286.7,88.8z M243.5,89.2v1.1h1.1v-1.1H243.5z M254.2,89.2v1.1h1.2v-1.1H254.2z M259.6,89.2v1.1h1.2v-1.1
		H259.6z M265,89.2v1.1h1.2v-1.1H265z M270.4,89.2v1.1h1.2v-1.1H270.4z M275.9,89.2v1.1h1.2v-1.1H275.9z M281.3,89.2v1.1h1.2v-1.1
		H281.3z M292.1,89.2v1.1h1.2v-1.1H292.1z M246.1,91.9v1.2h1.2v-1.2H246.1z M256.9,91.9v1.2h1.2v-1.2H256.9z M262.4,91.9v1.2h1.1
		v-1.2H262.4z M267.8,91.9v1.2h1.1v-1.2H267.8z M273.2,91.9v1.2h1.1v-1.2H273.2z M278.6,91.9v1.2h1.1v-1.2H278.6z M284,91.9v1.2h1.1
		v-1.2H284z M289.4,91.9v1.2h1.1v-1.2H289.4z M350.8,26.9h0.4l0.8,0.4l-0.4,0.7v1.2h0.7l1.6-1.6h1.1c4.6,3.6,7,5.7,7,6.2
		c1,1.6,1.6,2.7,1.6,3.5c-1,0.4-1.6,1.3-1.6,2.7c2.1,0.7,3.1,2.5,3.1,5.3l-0.4,2.7c0.5,1,0.8,1.8,0.8,2.3c-0.5,1-0.8,1.9-0.8,2.7
		l0.8,2.7c-0.5,0.9-0.8,1.9-0.8,3l0.4,2.3c-0.5,0.9-0.8,1.7-0.8,2.4c0.5,1.7,0.8,2.8,0.8,3.4l-0.4,2.7l0.4,1.6
		c-0.3,1.8-0.4,2.8-0.4,3c0.3,1.8,0.4,3.2,0.4,4.2l-0.4,0.8c0,0.9,1,1.6,3.1,1.9l-0.4,0.7c0.2,0.5,0.4,0.9,0.4,1.2h1.2l1.5-1.2h0.4
		c1.3,0.6,2.2,1.7,2.7,3.5c-1.3,3.6-3.3,5.4-6.2,5.4l-1.2-0.8h-0.7l-1.9,2.4c-1.5-0.7-2.3-1.5-2.3-2.4h-1.6c-1,0.8-1.9,1.2-2.7,1.2
		l-1.5-1.2h-0.8c-1.1,1-2.1,1.6-3,1.6c0-0.4-0.5-0.9-1.6-1.6h-1.2c-0.9,0.8-1.8,1.2-2.7,1.2c-1.3-1-2.1-1.6-2.3-1.6
		c-0.2,0-1,0.5-2.3,1.6h-0.8l-1.6-1.2h-1.1l-1.6,1.2c-0.9,0-1.9-0.5-3.1-1.6c-1.6,0.5-2.6,0.8-3,0.8c-1-0.5-2-0.8-3.1-0.8
		c-0.8,0.5-1.6,0.8-2.3,0.8c-1-0.7-2.2-1.3-3.9-1.6v-0.8c0.2-0.5,0.4-0.9,0.4-1.1h2.3l0.4,1.9h1.1c0.5,0,0.8-0.3,0.8-0.8v-0.4
		c0-0.3-0.8-0.9-2.4-1.9v-0.4c0-0.6,0.9-1.4,2.7-2.3c0-1.4,1-2.2,3-2.3c0-1.3,0.6-2.4,1.9-3.1l0.4-0.7c-0.8-1.3-1.2-2.3-1.2-3.1
		c0.6,0,1-0.6,1.2-1.9c0-0.2-0.6-1.1-1.9-2.7v-0.8l1.9-1.9v-0.4c0-0.2-0.6-0.8-1.9-1.9c0-0.9,0.5-1.8,1.5-2.7v-0.8l-0.7-2.7
		c0.5-0.8,0.7-1.6,0.7-2.3v-0.4l-1.9-2.4v-0.7c0-0.2,0.6-0.8,1.9-1.9V50c0-0.5-0.4-0.8-1.1-0.8l-1.9,0.4c0-1.8,1-3.4,3-4.7v-0.4
		c-1-1-2.2-2.9-3.9-5.8c0.8-1,1.2-1.8,1.2-2.7l-0.7-0.4h-1.2c0,1-0.5,1.6-1.6,1.6c-0.2,0-1-0.5-2.3-1.6h-0.7
		c-0.9,1.4-2.1,2.6-3.5,3.5v0.4c0,0.2,0.5,0.8,1.6,1.9v0.4c0,0.3-1.4,1.9-4.3,4.6c-2,2.5-3,4.2-3,5V52l1.1,1.6
		c-0.5,0.8-0.7,1.6-0.7,2.3l0.7,2.7c-0.6,0-1,0.6-1.1,1.9l0.4,0.7c0,0.9-0.9,1.5-2.7,1.9v0.8l2.3,1.6l0.4,0.7c0,0.9-1,1.6-3.1,1.9
		l-0.4,1.9H308c0-1.7-1-2.5-3-2.7v-1.9l2.3-1.6v-1.2c-1.3,0-2.1-0.4-2.3-1.1V60l2.3-1.6v-1.2c-1.5-0.2-2.3-0.6-2.3-1.1v-1.6
		c0.1-0.5,0.3-0.7,0.7-0.7c0.2,0,0.4,0.1,0.4,0.4c1-0.4,1.6-0.8,1.6-1.2v-0.4c0-0.2-0.4-0.6-1.1-1.1l-0.8,0.4
		c-0.5,0-0.7-0.3-0.7-0.8v-1.5l2.3-1.6v-0.8L305,45v-0.4c0-0.2,0.8-1,2.3-2.3v-0.4c-1.8-1.4-3.7-3.4-5.8-6.2h-0.4l-1.9,0.4l-0.4-0.8
		c0.2-0.5,0.4-1,0.4-1.6c-1.8-1.1-2.7-1.8-2.7-2.3v-0.4c0-0.4,1.4-1.4,4.3-3.1h0.4c1.1,1,1.8,1.6,1.9,1.6h1.1l1.9-1.6h0.4
		c2.4,1.5,4.1,2.9,5,4.3h0.4l2.3-1.9h0.8c0.2,0,0.8,0.6,1.9,1.9h0.4c0.5,0,0.7-0.4,0.7-1.2l-0.7-1.6l0.7-0.4l2.4,0.4
		c0.5-1.2,1-1.8,1.5-1.9h0.8c0.2,0,0.8,0.6,1.9,1.9h0.7c1-1,1.8-1.6,2.3-1.6c3.3,1.5,5,2.8,5,3.9c0.5,0,0.7,0.1,0.7,0.4l1.9-0.8
		c1.3,0.5,2.4,0.8,3.1,0.8c3.1-2.3,5.3-3.5,6.5-3.5l2.3,0.4C348.2,27.7,349.4,26.9,350.8,26.9L350.8,26.9z M300.3,31.1v0.4
		c0.1,0.5,0.4,0.8,0.8,0.8c0.5,0,0.7-0.3,0.7-0.8v-0.4c0-0.5-0.2-0.7-0.7-0.7C300.6,30.5,300.3,30.7,300.3,31.1L300.3,31.1z
		 M305.3,31.1v0.4c0.1,0.5,0.3,0.8,0.7,0.8v-0.4c-0.2,0-0.4-0.1-0.4-0.4c0.5-0.2,1-0.4,1.6-0.4c0-0.5-0.2-0.7-0.7-0.7h-0.4
		C305.6,30.5,305.3,30.7,305.3,31.1L305.3,31.1z M321.5,31.1v1.2c0.5,0,0.8,0.1,0.8,0.4c0.5-0.2,0.9-0.4,1.1-0.4v-1.2
		c0-0.5-0.2-0.7-0.7-0.7h-0.4C321.8,30.5,321.5,30.7,321.5,31.1L321.5,31.1z M326.9,31.1v0.4c0.1,0.5,0.3,0.8,0.7,0.8
		c0.5,0,0.8-0.3,0.8-0.8v-0.4c0-0.5-0.3-0.7-0.8-0.7C327.2,30.5,326.9,30.7,326.9,31.1L326.9,31.1z M343.5,30.7v1.1h1.1v-1.1H343.5z
		 M348.9,30.7v1.1h1.2v-1.1H348.9z M353.9,31.5c0.1,0.5,0.3,0.8,0.7,0.8c0.5,0,0.8-0.3,0.8-0.8v-0.7h-0.8
		C354.2,30.8,353.9,31.1,353.9,31.5z M302.7,33.8v0.4c0,0.5,0.3,0.7,0.7,0.7h1.2c0-0.5,0.1-0.7,0.4-0.7c-0.2-0.5-0.4-0.9-0.4-1.2
		h-1.2C302.9,33.1,302.7,33.4,302.7,33.8L302.7,33.8z M308.8,33c0,0.5-0.4,0.7-1.2,0.7c0.4,1,0.8,1.6,1.2,1.6h0.4l1.1-1.1
		c-0.2-0.5-0.4-0.9-0.4-1.2L308.8,33z M313.4,33.8V35h1.2c0.5,0,0.7-0.2,0.7-0.7v-0.4c0-0.5-0.2-0.7-0.7-0.7h-0.4
		C313.7,33.1,313.4,33.4,313.4,33.8L313.4,33.8z M318.8,33v1.2c0.1,0.5,0.3,0.7,0.7,0.7h0.4c0.5,0,0.8-0.2,0.8-0.7v-0.4
		c0-0.5-0.3-0.7-0.8-0.7L318.8,33z M324.2,33.8v0.4c0.1,0.5,0.3,0.7,0.7,0.7h0.4c0.5,0,0.8-0.2,0.8-0.7v-0.4c0-0.5-0.3-0.7-0.8-0.7
		H325C324.5,33.1,324.2,33.4,324.2,33.8z M351.6,33.8v0.4c0.1,0.5,0.3,0.7,0.7,0.7c0.5,0,0.7-0.2,0.7-0.7v-0.4
		c0-0.5-0.2-0.7-0.7-0.7C351.9,33.1,351.6,33.4,351.6,33.8z M330,33.4v1.2h1.1v-1.2H330z M335.4,33.4v1.2h1.2v-1.2H335.4z
		 M340.8,33.4v1.2h1.2v-1.2H340.8z M346.2,33.4v1.2h1.1v-1.2H346.2z M357,33.4v1.2h1.2v-1.2H357z M310.3,36.5v0.4
		c0,0.2,0.4,0.6,1.2,1.2l1.6-1.2c-0.4-1-0.8-1.6-1.2-1.6h-0.4C311.1,35.3,310.7,35.7,310.3,36.5L310.3,36.5z M305.3,36.5v0.4
		c0.1,0.5,0.3,0.7,0.7,0.7h0.4c0.5,0,0.7-0.2,0.7-0.7v-1.2h-1.2C305.6,35.8,305.3,36.1,305.3,36.5L305.3,36.5z M316.1,36.5v0.4
		c0.1,0.5,0.4,0.7,0.8,0.7h0.4c0.5,0,0.7-0.2,0.7-0.7v-0.4c0-0.5-0.2-0.8-0.7-0.8h-0.4C316.4,35.8,316.1,36.1,316.1,36.5z
		 M353.9,36.5c0.1,0.5,0.3,0.7,0.7,0.7h0.8v-0.7c0-0.5-0.3-0.8-0.8-0.8C354.2,35.8,353.9,36.1,353.9,36.5z M332.7,36.2v1.1h1.2v-1.1
		H332.7z M338.1,36.2v1.1h1.1v-1.1H338.1z M343.5,36.2v0.7c0,0.5,0.3,0.7,0.7,0.7c0.5,0,0.7-0.2,0.7-0.7c0-0.5-0.2-0.7-0.7-0.7
		H343.5z M340.8,44.6v0.7c0.5,0.6,0.8,1.1,0.8,1.6c-0.6,3.6-1.9,5.4-3.9,5.4v0.7c0,0.3,0.9,0.8,2.7,1.6v1.2c0,0.3-0.9,1.1-2.7,2.3
		v0.4l1.9,1.9v0.7l-1.9,2.4v0.4l2.3,1.9v1.1c0,0.3-0.9,0.8-2.7,1.6v0.8c0,0.1,0.8,0.9,2.4,2.3V72l-1.9,2.3v0.4
		c1.8,1,2.7,2.1,2.7,3.1c0,2.1,1.7,3.8,5,5c0,0.5,0.5,0.7,1.5,0.7c2.1-1,3.5-1.6,4.2-1.6c0,0.4,0.4,0.8,1.2,1.2
		c0-1.5,0.5-2.3,1.6-2.3c0.7,0,1.4-0.4,1.9-1.2c-0.8-1.3-1.2-2.2-1.2-2.7c0.8-1.5,1.2-2.5,1.2-3.1c-0.2-1.4-0.4-2.1-0.4-2.3l0.4-2.7
		c-0.8-1.3-1.2-2.2-1.2-2.7c0.8-1.3,1.2-2.2,1.2-2.7l-0.4-2.4c0.2-1.4,0.4-2.4,0.4-3c-0.8-1.3-1.2-2.2-1.2-2.7
		c0.8-1.3,1.2-2.3,1.2-3.1c-1-0.4-1.6-1.3-1.6-2.7c1-1.3,1.6-2.1,1.6-2.4c-1-1.8-1.6-3-1.6-3.4c0.4,0,0.8-0.4,1.2-1.2v-1.2
		c-0.9-0.2-1.4-0.4-1.6-0.4c0,0.2-0.1,0.4-0.4,0.4c0-1.5-1.3-3.3-3.9-5.3h-0.8c-2.7,1.7-4.2,2.8-4.6,3.4
		C343.6,42,342.4,43.7,340.8,44.6L340.8,44.6z M359.7,36.2v1.1h1.1v-1.1H359.7z M308,39.2v0.4c0.1,0.5,0.4,0.8,0.8,0.8h0.4
		c0.5,0,0.7-0.3,0.7-0.8v-0.4c0-0.5-0.2-0.7-0.7-0.7h-0.4C308.3,38.5,308,38.8,308,39.2L308,39.2z M313.4,39.2v0.4
		c0.1,0.5,0.3,0.8,0.7,0.8h1.2v-1.2c0-0.5-0.2-0.7-0.7-0.7h-0.4C313.7,38.5,313.4,38.8,313.4,39.2L313.4,39.2z M329.6,39.2v0.4
		c0.1,0.5,0.4,0.8,0.8,0.8c0.5,0,0.7-0.3,0.7-0.8v-0.4c0-0.5-0.2-0.7-0.7-0.7C329.9,38.5,329.6,38.8,329.6,39.2z M335.4,38.8V40h1.2
		v-1.2H335.4z M340.8,38.8V40h1.2v-1.2H340.8z M357,38.8V40h1.2v-1.2H357z M282.2,38.8h0.4c0.5,0.1,0.8,0.3,0.8,0.7V40
		c-0.5-0.3-0.9-0.4-1.2-0.4L282.2,38.8z M310.3,41.9v0.4c0,0.2,0.4,0.6,1.2,1.1c0.5-0.2,0.9-0.4,1.2-0.4v-1.9
		c-0.5,0-0.8-0.1-0.8-0.4C310.8,41.1,310.3,41.5,310.3,41.9L310.3,41.9z M316.1,41.1v1.2c0.1,0.5,0.4,0.7,0.8,0.7h0.4
		c0.5,0,0.7-0.2,0.7-0.7v-0.4c0-0.5-0.2-0.8-0.7-0.8L316.1,41.1z M359.7,41.9v0.7h1.6v-0.7c0-0.5-0.3-0.8-0.8-0.8
		C359.9,41.2,359.7,41.5,359.7,41.9L359.7,41.9z M332.7,41.5v1.2h1.2v-1.2H332.7z M338.1,41.5v1.2h1.1v-1.2H338.1z M321.9,42.3
		c0.5,1.6,0.8,2.6,0.8,3c0,0.4-1.4,2-4.2,4.7c0,0.7-0.8,1.1-2.4,1.1c0-0.5-0.5-0.7-1.5-0.7V50c0.7,0,1.2-0.8,1.5-2.3h0.4
		c0,0.2,0.1,0.4,0.4,0.4l0.7-1.6l0.8,0.4h0.4c0-0.9,0.1-1.5,0.4-1.9c-0.2,0-0.4-0.1-0.4-0.4h1.6C320.4,43.7,320.9,42.9,321.9,42.3
		L321.9,42.3z M308,44.6V45c0.1,0.5,0.4,0.8,0.8,0.8h0.7c0.5,0,0.7-0.3,0.7-0.8v-0.4c0-0.5-0.2-0.7-0.7-0.7h-0.7
		C308.3,44,308,44.2,308,44.6L308,44.6z M313.4,44.6V45c0.1,0.5,0.3,0.8,0.7,0.8h0.4c0.5,0,0.7-0.3,0.7-0.8v-0.4
		c0-0.5-0.2-0.7-0.7-0.7h-0.4C313.7,44,313.4,44.2,313.4,44.6z M335,44.2v1.6h1.6v-1.6H335z M357,44.2v1.1h1.2v-1.1H357z M362,45
		l0.7,0.4h0.8v-1.1h-0.8C362.2,44.3,362,44.6,362,45L362,45z M310.7,46.5v1.2c0.1,0.5,0.3,0.7,0.7,0.7h0.4c0.5,0,0.8-0.2,0.8-0.7
		v-0.4c0-0.5-0.3-0.7-0.8-0.7L310.7,46.5z M332.3,47.3v0.4c0,0.4,0.5,0.7,1.6,1.1l0.4-0.7v-1.6h-1.2
		C332.6,46.6,332.3,46.9,332.3,47.3L332.3,47.3z M359.7,46.5v1.2c0.1,0.5,0.3,0.7,0.7,0.7c0.5,0,0.8-0.2,0.8-0.7v-0.4
		c0-0.5-0.3-0.7-0.8-0.7L359.7,46.5z M337.7,47.7c0,0.5,0.3,0.7,0.7,0.7c0.5,0,0.7-0.2,0.7-0.7v-0.8h-0.7
		C338,47,337.7,47.3,337.7,47.7z M334.6,49.7v1.1c0.1,0.5,0.3,0.8,0.7,0.8h0.4c0.3,0,0.7-0.4,1.1-1.2V50c0-0.4-0.4-0.8-1.1-1.2h-0.4
		C334.9,48.9,334.6,49.2,334.6,49.7L334.6,49.7z M308,49.2v1.9h1.2c0.5,0,0.7-0.2,0.7-0.7V50c0-0.5-0.2-0.8-0.7-0.8L308,49.2z
		 M362,50v0.4c0.1,0.5,0.3,0.7,0.7,0.7c0.5,0,0.8-0.2,0.8-0.7V50c0-0.5-0.3-0.8-0.8-0.8C362.2,49.3,362,49.6,362,50z M357,49.7v1.1
		h1.2v-1.1L357,49.7z M332.3,52.7v0.4c0.1,0.5,0.3,0.8,0.7,0.8h1.2v-1.6l-0.4-0.7C332.8,52,332.3,52.3,332.3,52.7L332.3,52.7z
		 M310.7,52.7v0.4c0.1,0.5,0.3,0.8,0.7,0.8h0.4c0.5,0,0.8-0.3,0.8-0.8V52h-1.2C311,52,310.7,52.3,310.7,52.7L310.7,52.7z
		 M359.7,52.7v0.4c0.1,0.5,0.3,0.8,0.7,0.8c0.5,0,0.8-0.3,0.8-0.8v-0.4c0-0.5-0.3-0.7-0.8-0.7C359.9,52,359.7,52.3,359.7,52.7z
		 M307.6,55.4v0.4c0.1,0.5,0.4,0.7,0.8,0.7h0.7c0.5,0,0.7-0.2,0.7-0.7v-0.4c0-0.5-0.2-0.8-0.7-0.8h-0.7
		C307.9,54.7,307.6,55,307.6,55.4z M335,54.6v1.2c0.1,0.5,0.4,0.7,0.8,0.7h0.4c0.5,0,0.7-0.2,0.7-0.7v-0.4c0-0.5-0.2-0.8-0.7-0.8
		L335,54.6z M362,55.4v0.4c0.1,0.5,0.3,0.7,0.7,0.7c0.5,0,0.8-0.2,0.8-0.7v-0.4c0-0.5-0.3-0.8-0.8-0.8C362.2,54.7,362,55,362,55.4z
		 M357,55v1.2h1.2V55H357z M310.7,58.1v0.4c0.1,0.5,0.3,0.7,0.7,0.7h0.4c0.5,0,0.8-0.2,0.8-0.7v-0.4c0-0.5-0.3-0.8-0.8-0.8h-0.4
		C311,57.4,310.7,57.7,310.7,58.1z M332.3,58.1v0.4c0.1,0.5,0.3,0.7,0.7,0.7h0.4c0.5,0,0.8-0.2,0.8-0.7v-0.4c0-0.5-0.3-0.8-0.8-0.8
		h-0.4C332.6,57.4,332.3,57.7,332.3,58.1z M359.7,58.1v1.1h0.7c0.5,0,0.8-0.2,0.8-0.7v-0.4c0-0.5-0.3-0.8-0.8-0.8
		C359.9,57.4,359.7,57.7,359.7,58.1L359.7,58.1z M308,60.8v0.4c0.1,0.5,0.4,0.8,0.8,0.8h0.4c0.5,0,0.7-0.3,0.7-0.8v-0.4
		c0-0.5-0.2-0.7-0.7-0.7h-0.4C308.3,60.1,308,60.4,308,60.8L308,60.8z M335,60.8V62h1.2c0.5,0,0.7-0.3,0.7-0.8v-0.4
		c0-0.5-0.2-0.7-0.7-0.7h-0.4C335.3,60.1,335,60.4,335,60.8L335,60.8z M362,60.8v0.4c0.1,0.5,0.3,0.8,0.7,0.8c0.5,0,0.8-0.3,0.8-0.8
		v-0.4c0-0.5-0.3-0.7-0.8-0.7C362.2,60.1,362,60.4,362,60.8z M357,60.4v1.2h1.2v-1.2H357z M332.3,63.5v1.1h1.9v-1.1
		c0-0.5-0.3-0.8-0.8-0.8h-0.4C332.6,62.8,332.3,63.1,332.3,63.5L332.3,63.5z M359.7,63.5v0.7h0.7c0.5,0,0.8-0.2,0.8-0.7
		c0-0.5-0.3-0.8-0.8-0.8C359.9,62.8,359.7,63.1,359.7,63.5z M334.6,66.2v0.7c0.1,0.5,0.3,0.8,0.7,0.8h1.2c0.5,0,0.7-0.4,0.7-1.2
		l-1.1-1.6C335.1,65.4,334.6,65.8,334.6,66.2L334.6,66.2z M307.6,66.6v0.4c0.1,0.5,0.4,0.8,0.8,0.8h1.1c0.5,0,0.7-0.3,0.7-0.8v-0.4
		c0-0.4-0.4-0.7-1.1-1.1h-0.4C308.4,65.5,308,65.8,307.6,66.6L307.6,66.6z M357,65.8v1.1h1.2v-1.1H357z M362.4,65.8v1.1h1.2v-1.1
		H362.4z M331.9,68.9v0.4c0,0.4,0.4,0.7,1.1,1.1h0.4c0.4,0,0.8-0.4,1.2-1.1v-0.4c0-0.3-0.4-0.7-1.2-1.1h-0.4
		C332.7,67.8,332.3,68.1,331.9,68.9z M359.7,68.5v1.2h1.1v-1.2H359.7z M312.7,70.1l0.4,0.7V72c0,0.4-0.4,0.8-1.2,1.2h-0.4
		c-0.5,0-0.7-0.3-0.7-0.8v-1.1C310.7,70.8,311.4,70.4,312.7,70.1L312.7,70.1z M334.6,71.2V72c0,0.2,0.4,0.6,1.2,1.2
		c1-0.3,1.5-1.1,1.5-2.4l-0.7-0.4h-1.2C334.9,70.5,334.6,70.8,334.6,71.2L334.6,71.2z M305.7,70.4h1.6v1.9c0,0.5-0.2,0.8-0.7,0.8
		h-0.4c-0.4,0-0.7-0.4-1.1-1.2v-0.7C305,70.7,305.3,70.4,305.7,70.4L305.7,70.4z M357,71.2v1.1h1.2v-1.1H357z M362.4,71.2v1.1h1.2
		v-1.1H362.4z M332.3,73.5v1.1c0.1,0.5,0.3,0.8,0.7,0.8h1.2v-1.6c0-0.5-0.3-0.7-0.8-0.7C332.9,73.4,332.6,73.5,332.3,73.5
		L332.3,73.5z M308,73.5h1.9v1.9H308L308,73.5z M359.7,73.9v1.2h1.1v-1.2H359.7z M306.1,75.8h0.4c0.5,0.1,0.7,0.3,0.7,0.7v1.6h-1.6
		c-0.5,0-0.7-0.2-0.7-0.7V77C305,76.6,305.3,76.3,306.1,75.8L306.1,75.8z M311.5,75.8h0.4c0.4,0,0.8,0.4,1.2,1.2v0.4
		c0,0.5-0.3,0.7-0.8,0.7h-1.5v-1.6C310.8,76.1,311.1,75.8,311.5,75.8L311.5,75.8z M334.6,77c0.2,0.5,0.4,0.9,0.4,1.1h0.8
		c0.3,0,0.7-0.4,1.1-1.1c0-0.5-0.2-0.8-0.7-0.8h-0.8C334.9,76.3,334.6,76.6,334.6,77L334.6,77z M357,76.6v1.2h1.2v-1.2H357z
		 M362.4,76.6v1.2h1.2v-1.2H362.4z M332.3,79.7v0.4c0.1,0.5,0.3,0.8,0.7,0.8h0.4c0.5,0,0.8-0.3,0.8-0.8v-1.1h-1.2
		C332.6,79,332.3,79.3,332.3,79.7L332.3,79.7z M308,78.9h1.9v1.9H308L308,78.9z M337.7,79.3v0.7c0,0.5,0.3,0.8,0.7,0.8
		c0.5,0,0.7-0.3,0.7-0.8v-0.7H337.7z M359.7,79.3v1.1h1.1v-1.1H359.7z M304.2,79.3l0.4,0.7v0.8h-0.8c-0.5,0-0.7-0.3-0.7-0.8
		L304.2,79.3z M382.8,80.1h0.7c1.2,1,2.5,1.7,3.9,1.9l0.4,0.8v0.7c-0.7,0.8-1.1,1.7-1.1,2.7h-0.8c0-1.3-1.1-2.7-3.4-4.2l-0.4-1.6
		L382.8,80.1z M329.6,81.6l-0.4,0.7c0.2,0.5,0.4,0.9,0.4,1.2h1.2c0.5,0,0.7-0.2,0.7-0.7v-0.4C331.5,81.9,330.9,81.6,329.6,81.6
		L329.6,81.6z M335,82.4v0.4c0.1,0.5,0.4,0.7,0.8,0.7c0.3,0,0.7-0.4,1.1-1.2v-0.7h-1.1C335.3,81.7,335,82,335,82.4L335,82.4z
		 M340.8,82.4v0.8h1.2v-1.6h-0.4C341,81.7,340.8,82,340.8,82.4L340.8,82.4z M300.7,81.6h1.1v1.9h-1.9v-1.2
		C300,81.9,300.3,81.6,300.7,81.6L300.7,81.6z M305.3,81.6h1.9v1.9h-1.9V81.6z M310.7,81.6h1.9v1.9h-1.9V81.6z M357,82v1.2h1.2V82
		H357z M362.4,82v1.2h1.2V82H362.4z M316.9,82c0.4,0,0.7,0.4,1.1,1.2l-0.7,0.4h-1.2v-0.7C316.2,82.3,316.4,82,316.9,82L316.9,82z
		 M389.7,83.2h0.4c0.4,0,0.8,0.4,1.2,1.1h-0.4c-0.5-0.2-0.9-0.4-1.2-0.4V83.2z M327.3,83.9c-0.2,0.8-0.5,1.2-0.7,1.2l1.1,1.6
		l1.6-1.2C329,84.4,328.3,83.9,327.3,83.9z M332.3,85.1v0.7h1.1c0.5,0,0.8-0.2,0.8-0.7c0-0.5-0.3-0.8-0.8-0.8h-0.4
		C332.6,84.4,332.3,84.6,332.3,85.1z M298,84.3h1.2v1.9H298c-0.5,0-0.7-0.2-0.7-0.7v-0.4C297.3,84.6,297.6,84.3,298,84.3L298,84.3z
		 M302.7,84.3h1.9v1.9h-1.9V84.3z M308,84.3h1.9v1.9H308L308,84.3z M313.4,84.3h1.9v1.9h-1.9V84.3z M318.8,84.3h1.1
		c0.5,0.1,0.8,0.4,0.8,0.8v1.1h-1.9L318.8,84.3z M338.1,84.7v1.1h1.1v-1.1H338.1z M343.5,84.7v1.1h1.1v-1.1H343.5z M348.9,84.7v1.1
		h1.2v-1.1H348.9z M354.3,84.7v1.1h1.2v-1.1H354.3z M359.7,84.7v1.1h1.1v-1.1H359.7z M365.1,84.7v1.1h1.1v-1.1H365.1z M370.4,84.7
		v1.1h1.2v-1.1H370.4z M329.6,87.8v0.8h1.6V87h-0.7C329.9,87.1,329.6,87.4,329.6,87.8L329.6,87.8z M299.9,87h1.9V89h-1.1
		c-0.5,0-0.8-0.3-0.8-0.8V87z M305.3,87h1.9V89h-1.9V87z M310.7,87h1.9V89h-1.9V87z M316.1,87h1.9l0.4,1.9h-2.4L316.1,87z
		 M335.4,87.4v1.2h1.2v-1.2H335.4z M340.8,87.4v1.2h1.2v-1.2H340.8z M346.2,87.4v1.2h1.1v-1.2H346.2z M351.6,87.4v1.2h1.1v-1.2
		H351.6z M357,87.4v1.2h1.2v-1.2H357z M362.4,87.4v1.2h1.2v-1.2H362.4z M367.8,87.4v1.2h1.2v-1.2H367.8z M318.8,89.3h1.6v0.4
		c0,0.4-0.4,0.8-1.2,1.2l-0.4-0.8L318.8,89.3z M303.4,89.7h0.4c0.5,0.1,0.8,0.4,0.8,0.8l-0.8,0.4h-0.4c-0.5,0-0.7-0.3-0.7-0.8
		L303.4,89.7z M308,89.7h1.2c0.5,0.1,0.7,0.4,0.7,0.8l-0.7,0.4h-0.4c-0.5,0-0.8-0.3-0.8-0.8L308,89.7z M314.6,89.7
		c0.5,0.1,0.7,0.4,0.7,0.8l-0.7,0.4c-0.5,0-0.8-0.3-0.8-0.8L314.6,89.7z M371.6,92c0,0.5,0.6,1.2,1.9,1.9c0,0.6,0.5,1.3,1.6,1.9
		c0,1.4,1,2.3,3,2.7l-0.4,0.7c1.4,2,2.7,3.1,3.9,3.1v1.1c-0.6,0-1.1,0.1-1.6,0.4c-4.1-1-7-2.4-8.5-4.2c-0.3,0-0.7-0.1-1.2-0.4
		l-2.3,0.4h-0.4c0.2-0.5,0.4-0.9,0.4-1.1h0.4l0.8,0.4v-2.3h0.7l-0.4-0.8v-2.3C370.2,93.6,370.8,93,371.6,92L371.6,92z M417.2,41.8
		c-0.2-0.1-0.5-0.2-0.6-0.4C416.7,41.6,416.9,41.7,417.2,41.8z M411.9,33.4h1.9v-1.2c1.5,1,3.2,1.6,5,2v0.4l1.9-0.4h0.4V35
		c3.1,1.6,6.2,3,9.2,4.3c1.8,2.6,3.3,3.9,4.5,3.9c0,1,1,2.4,3.1,4.3c2.1,3.7,2.2,10.3,0.2,19.6c0.8,0.2,1.2,1.2,1.1,3h-0.8l0.1-1.5
		h-0.4c0,0.8-0.2,3.2-0.4,7.3l0.4,2.7l-2.4,3.8v0.4l0.4,2.3c-0.6,2.1-1,3.1-1.1,3.1c0,1,1,2.8,3,5.4c0,0.6,0.5,1.7,1.6,3.1
		c1,0,1.6-1.5,1.9-4.6c3.6-1.5,5.4-3.2,5.4-5.3c0.8-0.5,1.5-0.7,1.9-0.7c2.3,0.8,3.5,2.2,3.4,4.2c-0.8,2.3-1.2,3.8-1.2,4.6h0.7
		l2.7,0.4c-0.7,1.6-2.1,3.2-3.9,4.6c-3.3-0.4-5-1-5-1.6c-0.3,0-1.1,1.3-2.4,3.9c-0.9,0.2-1.4,0.4-1.5,0.4c-0.7,0-1.6-0.4-2.7-1.1
		l-3.5-0.1c-1.9,0-3.5-1.7-4.5-5c-0.8-0.7-2.7-1.4-5.8-1.9c-0.4,0-1.9,1-4.6,3h-0.7c-1.3-0.4-1.9-1.3-1.9-2.7v-1.9
		c0-1.8,1.8-3.6,5.4-5.4c0-0.7,1.4-2,4.2-3.7l0.4-2.7l0.1-4.2l-1.1-0.1l-0.7,0.4c0-0.7-0.3-1.3-0.8-1.9c0-0.4,0.4-0.8,1.2-1.2
		l1.1,0.9v-0.4c0-0.9-2.1-1.9-6.2-3.1c-0.6,0-2.5,0.9-5.7,2.6h-0.4c-0.5,0-1.8-0.2-3.9-0.7c-0.6,0-1.9,0.5-3.9,1.5l-1.9-0.4
		c-2.3,0.8-3.8,1.2-4.6,1.2v0.4l0.4,0.7c-2.3,0.6-3.4,1.7-3.5,3.4v3c-0.9,0-2.1,0.9-3.5,2.7l0.4-2.7v-0.7c1.5,0,2.3-1,2.3-3
		l-0.3-1.9c-2.3,1.1-3.5,3.3-3.5,6.5l-2.4,5c0.8,2.8,2.9,4.2,6.2,4.2c0.1,0,0.6-0.1,1.6-0.3c2.6,0.7,3.9,1.3,3.9,1.6
		c1.2-0.5,2.4-0.8,3.9-0.8c1.2,0,1.9,0.3,1.9,0.9c2.2-1,3.6-1.6,4.2-1.6c2.6,1.4,3.9,2.9,3.9,4.6c-0.7,2.6-2,3.9-3.9,3.9
		c-2-0.5-3.3-0.8-3.8-0.8l-5-0.1c-0.2,0-0.4-0.1-0.4-0.4l-3,1.2l-2.3-1.2c-1.4,0.2-2.6,0.4-3.5,0.4c-2.3,0-5.5-2.3-9.5-7
		c-0.3-0.8-1.9-2.6-5-5.3c-0.7-2.3-1.1-3.6-1.1-3.9c0-1.7,0.5-4.6,1.6-8.8c-0.8-0.2-1.2-0.5-1.2-0.7c0.2-0.5,0.4-0.9,0.4-1.2
		c-0.5,0-0.7-0.3-0.7-0.8v-0.8c0-0.6,0.5-1,1.6-1.1l1.9,0.4l-0.4,0.7V72h0.4c0.6,0,2.6-1.7,5.8-5c2.4,0,4.5-0.6,6.2-1.9h1.6
		l-0.8,1.2c0,0.4,0.4,0.7,1.2,1.1l4.6-1.1c0,0.4,0.2,0.8,0.7,1.1c6.9-1,10.5-2.5,10.8-4.5c0.5,0,1.3-0.6,2.7-1.9
		c0.5-0.2,1-0.4,1.6-0.4c1.8,0.1,2.7,0.4,2.7,0.9c6.2-1.5,9.3-3.9,9.3-7.3c-0.5-4.9-1.6-7.3-3.4-7.3c-2.6-1.5-5.4-2.4-8.5-2.7h-1.9
		c-0.2,0-0.4,0.1-0.4,0.4l-0.7-0.4h-0.8c-0.6,0-2.2,0.1-4.8,0.2c-2.6,0.1-5.7,1.4-9.3,4c-0.5,0.2-1.2,0.4-1.9,0.4l0.4,0.7h-1.2
		c0,0.3,0.1,0.7,0.4,1.2c-0.5,1.6-0.8,2.6-0.8,3l-0.7-0.4l-0.4,0.7l-0.8-0.4h-1.5c0,0.5-0.1,0.7-0.4,0.7c-0.5-0.2-0.9-0.4-1.1-0.4
		c0,0.2,1.1,1,3.4,2.2c0-0.2-0.1-0.4-0.4-0.4c0,1-1.4,2-4.1,2.9c-2.7,0.9-4,1.4-4,1.7h-0.4l-0.8-0.4l0.4-0.7c0-0.5-0.2-0.8-0.7-0.8
		c0,0.3-0.1,0.4-0.4,0.4c-1-1.1-1.6-2.2-1.6-3.1v-2.3c0.8-1.2,1.2-2.2,1.2-3c-0.5-1-0.7-2-0.7-3.1V47c0-5.4,6.3-10,18.9-13.7
		L411.9,33.4z M455.5,57.1h0.4c0,0.8,1,1.6,3.1,2.4c0.5,0.8,0.7,1.5,0.7,1.9h0.4l0.7-0.4c0,0.7,1,1.5,3.1,2.3l-0.4,0.8
		c0,0.8,0.4,1.7,1.1,2.7v1.6c-1.1-0.3-2-1.1-2.7-2.3v-0.8h0.7v-0.4c-1.7-1.8-2.7-2.7-3-2.7l-0.4,0.7c0.5,0.8,0.7,1.5,0.7,1.9
		c-0.4,0-1-0.5-1.9-1.6l0.4-0.7V61c-0.4,0-1.3-0.3-2.7-0.8l0.8-1.1c0-0.5-0.4-0.8-1.1-0.8L455.5,57.1z M389,59.8l0.4,0.7H389
		c-0.7,0-1.3-0.1-1.9-0.1C387.9,60.5,388.5,60.2,389,59.8L389,59.8z M450,75.9h2.4c0.7,1,1.4,1.6,1.9,1.6l-0.1,1.9l-1.1,3.8h-0.7
		c-0.2,0-1.4-1.7-3.4-5v-1.1C448.9,76.7,449.2,76.3,450,75.9L450,75.9z M399.2,81.4h0.4v0.7h-1.1C398.6,81.6,398.8,81.4,399.2,81.4z
		 M409.5,101.4h2.7c0.5,0.1,0.8,0.3,0.8,0.7v0.4C410.7,102.3,409.5,102,409.5,101.4L409.5,101.4z M407.2,104.8
		c0.5,0.1,0.7,0.4,0.7,0.8v0.4l-0.7-0.1V104.8z M406.8,105.9h0.4v0.4c0,0.4-0.4,0.8-1.2,1.2h-0.4l0.1-0.4
		C405.6,106.7,406,106.4,406.8,105.9L406.8,105.9z M416,106.7c1,0.4,1.8,1.1,2.2,2c-0.4,0-1.9,1-4.6,3l-0.4-0.8v-0.4
		C413.3,109.1,414.2,107.8,416,106.7L416,106.7z M413.7,113.3c0,1.5,1,2.3,3,2.3v1.2H416c-1,0-1.6-0.1-1.6-0.4l-2.7,0.4l-5.8-0.1
		c0-1.4,1.4-2.4,4.2-3c0.5,0.2,0.9,0.4,1.2,0.4C411.8,114.1,412.5,113.8,413.7,113.3L413.7,113.3z M511.7,100.3l1.1-0.2l-0.2-1.1
		l-1.1,0.2L511.7,100.3z M504.3,108.4l1.1-0.2l-0.2-1.1l-1.1,0.2L504.3,108.4z M452.5,95.6l2.9-0.6l-0.7,1.4
		C453.3,96.2,452.6,96,452.5,95.6z M456.3,105.3l0.7-0.2l-0.3-1.6l-0.8,0.2c-0.5,0.1-0.7,0.5-0.6,1
		C455.6,105.1,455.9,105.3,456.3,105.3L456.3,105.3z M457.6,102.2l1.6-0.4l-0.3-1.1l-0.3,0.1C458.1,100.9,457.8,101.3,457.6,102.2
		L457.6,102.2z M459.1,107.3l1.2-0.2l-0.2-1.1l-1.2,0.2L459.1,107.3z M461.3,104.4l0.7-0.1c0.5-0.2,0.6-0.5,0.6-0.9l-0.1-0.3
		c-0.1-0.5-0.4-0.7-0.9-0.6c-0.5,0.1-0.7,0.4-0.6,0.9L461.3,104.4z M472.1,99l0.7-1.4l-0.1-0.4l-0.9,0.2l-0.2-0.7l0.4-0.1
		c1.4,0.1,2.1,0.3,2.2,0.7l-0.4,0.1l0.6,0.7l0.1,0.4L472.1,99z M461.1,97l1.2-0.2l-0.2-0.8l-0.4,0.1C461.2,96.2,461,96.5,461.1,97
		L461.1,97z M464.8,106.1l0.7-0.2l-0.6-0.7l0.8-0.1c-0.1-0.5-0.4-0.7-0.9-0.6l-0.4,0.1c-0.5,0.1-0.7,0.4-0.6,0.9
		C464.1,105.9,464.4,106.1,464.8,106.1L464.8,106.1z M463.7,101.2c0.5-0.2,0.6-0.5,0.6-0.9l-0.2-0.8l-0.7,0.2
		c-0.5,0.1-0.7,0.5-0.6,1C463,101.1,463.3,101.3,463.7,101.2L463.7,101.2z M471.4,88.5l-0.1-0.4l1.8-0.4l0.1,0.3L471.4,88.5z
		 M462.8,95.8l0.9,0.2c-0.1-0.5,0-0.8,0.5-0.9l-0.1-0.4L463,95L462.8,95.8z M475.4,100.6c0.2-0.5,0.2-1,0.1-1.6l0.5-0.1
		c0.7-0.2,1,0,1.1,0.5c-0.7,0.1-0.9,0.6-0.7,1.4L475.4,100.6z M475.9,98.2l-0.3-1.5l0.6-0.1l0.3,1.5L475.9,98.2z M466.9,103.2
		c0.3-0.1,0.6-0.5,0.9-1.4c-0.1-0.5-0.4-0.7-0.9-0.6c-0.3,0.1-0.6,0.6-0.9,1.4C466.2,103.1,466.5,103.3,466.9,103.2L466.9,103.2z
		 M467.6,108.1l1.1-0.2l-0.2-1.1l-1.1,0.3L467.6,108.1z M469.6,104.9l0.8-0.2c0.5-0.2,0.6-0.5,0.6-0.9c-0.1-0.5-0.4-0.6-0.9-0.6
		c-0.5,0.1-0.7,0.4-0.6,0.9L469.6,104.9z M466.7,86.7l2.6-0.6l-0.2-0.7l-1.9,0.1c-0.5,0.1-0.7,0.4-0.6,0.9L466.7,86.7z M472.1,102
		l0.4-0.1c0.5-0.2,0.7-0.5,0.6-0.9l-0.2-0.8l-1.1,0.2c-0.5,0.1-0.7,0.5-0.6,1C471.4,101.9,471.7,102.1,472.1,102L472.1,102z
		 M473,107.3l0.7-0.1c0.5-0.2,0.6-0.5,0.6-1l-0.1-0.3c-0.1-0.5-0.4-0.7-0.9-0.6c-0.5,0.1-0.7,0.4-0.6,0.9L473,107.3z M469.7,93.1
		l1.1-0.2c0.5-0.2,0.6-0.5,0.6-0.9c-0.1-0.4-0.5-0.7-1.4-0.9l-0.7,0.1l0.1,0.4c0,0.2,0.2,0.4,0.4,0.3l-0.2,0.9L469.7,93.1z
		 M468.7,121l1.9-0.4l-0.1-0.4c-0.1-0.5-0.4-0.6-0.9-0.6C469.3,119.7,469,120.2,468.7,121L468.7,121z M476.5,109.2
		c0.4-0.1,0.7-0.5,0.9-1.4c-0.1-0.5-0.5-0.7-1-0.6l-0.3,0.1c-0.5,0.1-0.7,0.4-0.6,0.9l0.1,0.4C475.9,109.2,476.2,109.4,476.5,109.2
		L476.5,109.2z M475.4,104c0.5-0.2,0.6-0.5,0.6-0.9l-0.1-0.4c-0.1-0.5-0.4-0.6-0.9-0.6c-0.5,0.1-0.6,0.4-0.6,0.9l0.1,0.4
		C474.7,103.9,474.9,104.1,475.4,104L475.4,104z M471.2,89.2c0.1,0,0.6,0,1.6,0.1c0-0.5,0.2-0.9,0.6-1l0.8,0.2l0.2-0.8l-1.2-0.5
		l-1.6,0.3c-0.5,0.1-0.6,0.4-0.6,0.9L471.2,89.2z M463.2,126c0-0.5,0.3-0.8,0.9-0.9l0.4-0.1c0.1,0.5-0.1,0.8-0.7,0.9L463.2,126z
		 M477.7,105.8c0.4-0.3,1-0.6,1.8-0.8c-0.1-0.5-0.4-0.7-0.9-0.6l-0.4,0.1c-0.5,0.1-0.7,0.4-0.6,0.9L477.7,105.8z M480.2,111.2
		c0.5-0.2,0.7-0.5,0.6-0.9l-0.2-0.8l-1.5,0.4l0.2,0.7C479.4,111.1,479.7,111.2,480.2,111.2L480.2,111.2z M464.5,125l-0.1-0.4
		l1.4-0.3c0.7,0.2,1.2,0.2,1.6,0.1l-0.3,0.8C465.9,125,465.1,124.9,464.5,125L464.5,125z M481.8,108.1l-0.1-0.4
		c-0.2,0.1-0.4,0-0.4-0.2c0.5-0.2,0.7-0.5,0.6-1l-0.1-0.4l-0.4,0.1c-0.5,0.1-0.6,0.4-0.6,0.9l0.1,0.4
		C481.1,107.9,481.4,108.1,481.8,108.1L481.8,108.1z M484.9,109.7l0.4-0.1c0.5-0.2,0.7-0.5,0.6-0.9c-0.1-0.5-0.4-0.7-0.9-0.6
		l-0.4,0.1c-0.5,0.1-0.7,0.4-0.6,0.9C484.2,109.6,484.5,109.8,484.9,109.7z M486.2,106.6l1.1-0.2c0.5-0.2,0.6-0.5,0.5-0.9
		c-0.1-0.5-0.4-0.7-0.9-0.6l-0.4,0.1c0.2,0.8,0,1.2-0.4,1.4L486.2,106.6z M490.2,108.5l0.8-0.2l-0.2-0.7c-0.1-0.5-0.4-0.7-0.9-0.6
		c-0.5,0.1-0.7,0.4-0.6,0.9C489.5,108.4,489.8,108.6,490.2,108.5L490.2,108.5z M491,101.6c0.5-0.1,1.1-0.1,1.6,0.1l-0.1-0.4
		l-0.8-0.2l-0.8,0.1L491,101.6z M495,107.4l1.2-0.2l-0.2-0.7c-0.3,0.1-0.7,0-1.2-0.1L495,107.4z M527.9,28.4
		c0.1-0.5,0.4-0.7,0.8-0.7l1.9,0.4l-0.1,0.4L527.9,28.4z M495.4,102.1l1.1-0.2l-0.2-1.1l-1.2,0.2L495.4,102.1z M513.3,64.3l-0.1-0.4
		l1.5-0.3l0.1,0.4L513.3,64.3z M500.3,106.2l1.1-0.3l-0.3-1.1l-1.1,0.2L500.3,106.2z M509.4,101.3l0.7-0.6l0.7-0.2
		c0.1,0.5,0.3,0.7,0.6,0.7c-0.1,0.5-0.2,0.9-0.1,1.2l-0.4,0.1C510.5,102.6,510,102.2,509.4,101.3L509.4,101.3z M543.3,35.7l0.1-0.7
		l4.6-0.2l0.4,0.1v0.4c-1.3-0.1-1.9,0.1-2,0.6c-0.5-0.3-0.8-0.4-1.1-0.4L543.3,35.7z M512.3,101.8l-0.2-1.1l0.7-0.2l0.2,1.1
		L512.3,101.8z M463.1,104.3l1.1-0.3l-0.3-1.1l-1.1,0.3L463.1,104.3z M460.1,93.9l1.1-0.3l-0.3-1.1
		C460.5,92.6,460.2,93.1,460.1,93.9z M458.6,88.8l1.1-0.3l-0.3-1.1l-1.1,0.3L458.6,88.8z M463.4,95.8c0.4-0.4,0.7-0.6,1-0.7
		l-0.2-0.7l-1.1,0.3L463.4,95.8z M461.9,90.6l1.1-0.3l-0.3-1.1l-1.1,0.3L461.9,90.6z M467.5,97.4l0.4-0.1l-0.3-1.1l-1.2,0.3l0.1,0.4
		C466.7,97.4,467,97.5,467.5,97.4L467.5,97.4z M466.4,92.1l-0.3-1.1l-1.2,0.4C465,91.7,465.5,92,466.4,92.1L466.4,92.1z M468.6,94.3
		l1.1-0.3l-0.2-0.7l-1.2,0.3L468.6,94.3z M471.9,96.2l0.8-0.2c0.5-0.2,0.6-0.5,0.5-1l-0.1-0.3l-1.5,0.4L471.9,96.2z M473.9,93.2
		l1.1-0.3l-0.4-1.5l-0.7,0.2C474,92.2,474,92.7,473.9,93.2L473.9,93.2z M480.8,96.4l0.7-0.2l-0.4-1.5l-0.7,0.2
		c-0.5,0.1-0.7,0.4-0.5,0.9C480,96.3,480.4,96.5,480.8,96.4L480.8,96.4z M481.9,93.3l1.5-0.4l-0.4-1.2l-0.3,0.1
		C482.3,91.9,482.1,92.4,481.9,93.3L481.9,93.3z M483.7,98.3l1.1-0.4l-0.3-1.1l-1.1,0.3L483.7,98.3z M485.7,95.4l0.7-0.2
		c0.5-0.2,0.6-0.6,0.5-0.9l-0.1-0.4c-0.1-0.5-0.4-0.7-0.9-0.6c-0.5,0.1-0.6,0.5-0.5,1L485.7,95.4z M489.3,96.7l0.7-0.2l-0.6-0.6
		l0.8-0.2c-0.2-0.5-0.5-0.6-1-0.5l-0.4,0.1c-0.5,0.1-0.7,0.4-0.5,0.9C488.6,96.7,488.9,96.9,489.3,96.7L489.3,96.7z M487.9,91.9
		c0.5-0.2,0.6-0.5,0.6-0.9l-0.2-0.7l-0.7,0.2c-0.5,0.1-0.7,0.5-0.5,1C487.2,91.9,487.5,92.1,487.9,91.9L487.9,91.9z M491.2,93.7
		c0.3-0.1,0.6-0.5,0.8-1.4c-0.2-0.5-0.5-0.7-1-0.6c-0.3,0.1-0.6,0.6-0.7,1.4C490.5,93.7,490.8,93.9,491.2,93.7L491.2,93.7z
		 M492.2,98.7l1.1-0.3l-0.3-1.1l-1.1,0.4L492.2,98.7z M494,95.4l0.8-0.2c0.5-0.2,0.6-0.5,0.5-0.9c-0.1-0.5-0.4-0.6-0.9-0.5
		c-0.5,0.2-0.7,0.5-0.6,0.9L494,95.4z M496.4,92.3l0.4-0.1c0.5-0.2,0.6-0.6,0.5-0.9l-0.2-0.8l-1.1,0.3c-0.5,0.2-0.7,0.5-0.6,1
		C495.6,92.2,496,92.4,496.4,92.3L496.4,92.3z M497.6,97.6l0.7-0.2c0.5-0.2,0.6-0.5,0.5-0.9l-0.1-0.4c-0.1-0.5-0.4-0.7-0.9-0.5
		c-0.5,0.1-0.7,0.4-0.6,0.9L497.6,97.6z M501.2,99.3c0.3-0.1,0.6-0.6,0.8-1.4c-0.2-0.5-0.5-0.7-1-0.5l-0.4,0.1
		c-0.5,0.1-0.7,0.4-0.5,0.9l0.1,0.4C500.5,99.2,500.8,99.4,501.2,99.3L501.2,99.3z M499.7,94.1c0.5-0.2,0.6-0.5,0.6-0.9l-0.1-0.4
		c-0.1-0.5-0.4-0.6-0.9-0.5c-0.5,0.1-0.6,0.4-0.5,0.9l0.1,0.4C499,94.1,499.3,94.2,499.7,94.1L499.7,94.1z M502.2,95.8
		c0.3-0.4,0.9-0.7,1.8-0.9c-0.2-0.5-0.5-0.6-1-0.4l-0.4,0.1c-0.5,0.2-0.6,0.5-0.5,0.9L502.2,95.8z M504.9,101
		c0.5-0.2,0.6-0.5,0.6-0.9l-0.2-0.7l-1.5,0.4l0.2,0.8C504.2,101,504.5,101.1,504.9,101L504.9,101z M506.3,97.9l-0.1-0.4
		c-0.2,0.1-0.4,0-0.5-0.2c0.5-0.2,0.7-0.6,0.6-1l-0.1-0.4l-0.4,0.1c-0.5,0.1-0.7,0.4-0.6,0.9l0.1,0.4
		C505.6,97.7,506,97.9,506.3,97.9L506.3,97.9z M509.6,99.3l0.3-0.1c0.5-0.2,0.6-0.5,0.6-0.9c-0.2-0.5-0.5-0.7-0.9-0.6l-0.4,0.1
		c-0.5,0.2-0.7,0.5-0.6,1C508.8,99.2,509.2,99.4,509.6,99.3L509.6,99.3z M510.7,96.2l1.1-0.3c0.5-0.2,0.6-0.5,0.5-1
		c-0.1-0.5-0.4-0.6-0.9-0.5l-0.4,0.1c0.2,0.7,0.1,1.2-0.4,1.3L510.7,96.2z M514.7,97.8l0.8-0.2l-0.2-0.7c-0.2-0.5-0.5-0.7-1.1-0.6
		c-0.5,0.2-0.6,0.5-0.5,1C514,97.7,514.4,97.9,514.7,97.8z M519.5,96.4l1.1-0.3l-0.2-0.7c-0.3,0.1-0.7,0.1-1.2-0.1L519.5,96.4z
		 M502.2,22.1v1.1h-0.7v-0.4C501.6,22.4,501.8,22.1,502.2,22.1L502.2,22.1z M497.3,25.5h1.1c0,0.5-0.2,0.8-0.7,0.8h-0.4V25.5z
		 M489.9,30.9h1.9c3.1,0.8,6.4,1.3,10,1.6c1.9,2.1,3.6,3.1,5,3.1c1.5,0,3-0.9,4.7-2.7c1.5-0.5,4.4-1.1,8.8-1.9
		c5.4,1.5,8.1,3.2,8.1,5c1.9,2.1,2.9,4,3.1,5.8v0.8c0,3.4-2.3,5.3-7,5.8c-3.3-2.3-5.4-3.5-6.2-3.5c-2.8,0-4.2,3.7-4.2,11.2
		c0,3.6-0.5,5.8-1.6,6.6c0.2,0.7,0.5,1.1,0.8,1.1c0,0.5-1.3,1.8-3.9,3.9c-0.4,1-2,2.1-5,3.1c-2.3,2.8-5.9,4.2-10.8,4.2
		c0,0.3-0.6,0.4-1.9,0.4l0.7,1.1l-1.1,0.8c-0.3-0.5-0.4-0.9-0.4-1.2h-0.4l-0.7,0.4v-1.1h-1.2c-0.5,0-0.7,0.4-0.7,1.1h-0.4
		c0-0.6-0.5-1-1.5-1.1v0.4c0.2,0,0.4,0.1,0.4,0.4c-0.7,0.5-1.1,0.7-1.2,0.7c0-0.5-0.2-0.7-0.7-0.7h-0.4c0,0.6-0.1,1.1-0.4,1.6
		l-0.7-0.4h-0.4v0.7H493c0.5,0,1.8,0.3,3.9,0.8c1-0.5,1.8-0.8,2.3-0.8c3,1.5,6.4,2.3,10,2.3c0,0.5,2.3,1.7,7,3.9
		c0,0.4,1.9,1.8,5.8,4.3c1.5,1.4,2.6,4.1,3.1,8.1l-0.4,2.3c0.2,1.4,0.4,2.7,0.4,3.9v0.4c0,1.6-1.9,4.5-5.8,8.9l-12,4.6
		c-3,0-4.9,0.6-5.8,1.9l-1.6,0.8c-0.9-0.5-1.9-0.8-3-0.8h-0.4c-1,0-2.4,0.1-4.2,0.4c-2.9-1-5.8-1.5-8.9-1.5l-1.9,0.4
		c-0.8,0-2.6-0.8-5.4-2.3h-0.4l-2.7,0.4c0-0.2-0.1-0.4-0.4-0.4c0,0.2-0.1,0.4-0.4,0.4c-0.1-1-2.5-2.4-7.3-4.3
		c-1.3-2.5-3.6-4.9-7-7.3c-0.7-1.9-1.1-3.4-1.1-4.2v-0.4c0.5-4.8,1.1-8.4,1.9-10.8c1.8-1.7,2.7-3.4,2.7-5c0-0.9-1.3-3-3.9-6.5v-2.7
		c0-3.9,2.2-6.9,6.6-9.3c0-0.3,1.8-1.5,5.4-3.5c0.5-1.4,0.7-2.4,0.7-3c0-0.7-0.6-3.5-1.9-8.5c2.1-7.3,4.4-11.6,7-12.7
		c4.4-4.1,8.7-6.2,13.1-6.2C488.4,31.1,488.9,30.9,489.9,30.9L489.9,30.9z M457.5,37.9h0.7c0,0.2,0.1,1.3,0.4,3.1
		C457.8,40.8,457.5,39.8,457.5,37.9L457.5,37.9z M478.3,52.8c0.9,8.5,2.8,12.7,5.8,12.7v-0.9l3.7,0.4l2.4-0.9
		c0.4,1.4,0.8,2.1,1.3,2.1h2.4c2.3,0,3.9-1.1,5-3.4c2.7-2.8,4.1-4.5,4.1-5.1c-1.9,0-2.9-0.4-2.9-1.3l0.9-0.4h2.4v-5.5
		c0-5.3-4.1-9.4-12.3-12.3h-0.4c-2.3,0-4.5,1.6-6.6,4.7c-2.3,0-3.8,2.1-4.5,6.3C479,49.3,478.6,50.5,478.3,52.8L478.3,52.8z
		 M432,40.6h0.4c0.5,0.1,0.8,0.3,0.8,0.7c-0.3,0-0.7,0.1-1.2,0.4L432,40.6z M458.6,41.4c0.3,0,1.1,1.2,2.3,3.5v1.6h-0.4
		c0-0.7-0.5-1.7-1.6-3.1L458.6,41.4z M460.9,46.4c0.5,0.1,0.7,0.3,0.7,0.7v0.4c-0.5,0-0.7-0.2-0.7-0.7V46.4z M432.8,48.3h1.1v0.4
		c-0.2,0-0.6,0.1-1.1,0.4V48.3z M495.7,49.1h0.4c0.5,0.1,0.8,0.4,0.8,0.8v0.7c0,0.5-0.3,0.8-0.8,0.8c-0.5,0-0.7-0.4-0.7-1.2
		C495.6,49.8,495.7,49.4,495.7,49.1L495.7,49.1z M490.3,53.8h1.2v0.7H491C490.5,54.5,490.3,54.3,490.3,53.8L490.3,53.8z M490.7,56.1
		h0.4c1.6,0.6,2.4,1.1,2.4,1.6V58c0,0.5-0.3,0.8-0.8,0.8c-0.2-1-0.9-1.7-1.9-2.4L490.7,56.1z M452.4,56.4h0.8v1.2
		c0,0.5-0.3,0.7-0.8,0.7V56.4z M489.9,58h0.4c0.4,0,1.1,0.8,2.3,2.3h-0.4l-1.2-0.7h-0.4v1.6H488c0.1-0.5,0.3-0.8,0.7-0.8l-0.7-1.5
		C489.3,58.8,489.9,58.5,489.9,58L489.9,58z M484.5,59.5h1.1v0.7h-1.1V59.5z M489.1,59.9v0.8h1.2c0-0.5-0.2-0.8-0.7-0.8H489.1z
		 M451.7,60.7c1,0,1.6,1.7,1.6,5h1.1v1.2l-1.9-0.4l0.4-1.9L452,65v-0.7h0.7v-0.8H452v0.8h-0.4c0-0.5-0.4-0.8-1.2-0.8V63
		c0.5,0,0.8-0.1,0.8-0.4L452,63h0.4v-1.2h-0.7L451.7,60.7z M435.4,61.1l0.4,0.7c-0.7,0-1.1,0.3-1.1,0.8V63h1.5v0.4
		c-0.5,0-0.7,0.3-0.7,0.8c-0.7-0.5-1.3-0.8-1.9-0.8C433.5,62.1,434.1,61.3,435.4,61.1L435.4,61.1z M433.9,64.6h0.4
		c1,1,1.9,1.6,2.7,1.6c0,0.5-0.3,0.7-0.8,0.7h-0.7C435.1,66.9,434.6,66.1,433.9,64.6L433.9,64.6z M436.2,68.1h0.4v2.7h-0.4V68.1z
		 M433.5,71.5c1.1,0.3,2,1.1,2.7,2.3v0.7h-0.7c0-1.5-0.6-2.3-1.9-2.3L433.5,71.5z M477.7,72.5c0,0.8-0.6,1.7-1.7,2.8v1.4h-0.6
		c0-1-0.2-1.4-0.5-1.4l0.5-0.7v-1.4c-0.9,0.5-1.6,0.7-2.2,0.7v2.8l-0.5,0.7l-1.1-0.4H469v0.7c1.6,1.2,3.6,1.8,6,1.8
		c1.6-0.3,3-0.8,4.4-1.4l-0.6-0.7v-0.4c0.7-0.6,1.1-1.2,1.1-1.8h0.6c0,0.2,0.2,0.6,0.5,1.1c-0.7,0-1.1,0.3-1.1,0.7v0.4
		c4-0.5,6-1.3,6-2.2h0.6l1.1,0.4V75l-2.7-0.4c-1.5,0-2.2,0.4-2.2,1.1H482c0-0.7-0.9-1.1-2.7-1.1V74h0.5l1.1,0.3l0.6-0.7v-0.4
		C480.8,73.2,479.5,73,477.7,72.5L477.7,72.5z M455.1,72.7l1.1,1.6v0.4h-0.4c-0.4,0-0.9-0.5-1.6-1.6L455.1,72.7z M507.6,73h0.8v0.4
		c0,0.5-0.3,0.7-0.8,0.7V73z M509.6,74.6v3.1c-0.2,0-0.6,0.1-1.1,0.4l0.4-1.9l-0.4-0.7L509.6,74.6z M434.7,78.1c0.3,0,1,0.6,1.9,1.9
		h-0.4c-1.5-0.7-2.3-1.2-2.3-1.6L434.7,78.1z M437.7,80h0.8c0,0.3,0.1,0.7,0.4,1.2l-0.8,0.4C437.9,80.6,437.7,80.1,437.7,80
		L437.7,80z M486.4,89.8c-1.7-0.9-3.2-1.3-4.2-1.3h-1.6c-0.7,0-1.1,0.6-1.2,1.7l1.2,2.5l-0.8,0.4l0.4,0.7v1.3h-0.7
		c0.2,1.2,0.4,2.1,0.4,2.8l-1.1,0.9v-0.9h-0.8v0.4c1.8,1.3,2.7,2.2,2.7,2.5l-0.8,0.4h-0.7l-1.9-1.6l0.4-0.8v-1.2H476l-0.7-2.9
		l0.7-0.4c0,1.9,0.3,2.9,0.8,2.9l0.7-0.4c-0.2,0-0.5-2.5-0.7-7.4c-0.7,0-1.1,0.7-1.2,2.1h-0.4c0-0.6-0.1-0.9-0.4-0.9
		c-5.4,2.2-8.1,4.7-8.1,7.4c0,2.8,2.4,5.4,7.3,7.8c6.3,1.4,9.9,2.1,10.8,2.1h3.5c1.7,0,3.3-0.1,4.6-0.4c4.4,0.2,7.6,0.7,9.7,1.2
		l6.5-1.7c0.2-0.9,2.4-2.4,6.6-4.5l0.4-2.1v-2.9c0-2.4-2.1-4.8-6.2-7c-7.7-2.4-12.1-3.6-13.1-3.6h-0.8c-0.9,0-1.5,0.1-1.9,0.4
		l-2.3-0.4C491,86.9,489.2,87.9,486.4,89.8L486.4,89.8z M477.9,91.6l-0.4,0.8l0.7,0.4l0.4-0.7L477.9,91.6z M460.6,109.7
		c0,0.3,0.1,0.4,0.4,0.4c-0.2,0.4-0.4,1.1-0.4,1.9h-1.2v-1.9C459.7,110.2,460.1,110,460.6,109.7L460.6,109.7z M465.5,115.6l1.6,1.9
		c0-0.3,0.1-0.4,0.4-0.4l-0.4-0.7c0.1-0.5,0.4-0.7,0.8-0.7h0.4c0.5,3.4,0.7,5.4,0.7,6.2h-0.4c-0.5,0-0.7-0.2-0.7-0.7l0.4-2l-0.8-0.4
		h-0.7c-0.2,0-0.4,0.1-0.4,0.4c-1.2-0.5-1.8-1-1.9-1.5v-0.8l1.1,0.8l0.4-0.8C465.7,116.2,465.5,115.8,465.5,115.6L465.5,115.6z
		 M470.2,116.3h0.7c0,1.2,0.1,1.9,0.4,2.3c-0.5,0.1-0.8,0.4-0.8,0.8v0.4h0.4c1-0.2,1.6-1,1.6-2.3c-0.2,0-0.4-0.1-0.4-0.4h0.4
		c1.4,0.3,2.4,0.4,3.1,0.4v0.4c-1.6,0-2.7,1-3.5,3.1h-1.6c-0.2-0.5-0.5-1.6-0.7-3.5C470.1,117,470.2,116.6,470.2,116.3L470.2,116.3z
		 M477.2,119.8l0.4,1.6c-0.5,0.1-0.7,0.3-0.7,0.7l0.4,0.8c-0.3,0-1.2,0.8-2.7,2.3h-0.7c-0.6,0-1-0.6-1.2-1.9l3.9-2.3
		C476.4,120.2,476.6,119.8,477.2,119.8L477.2,119.8z M473.7,123.7v1.2h0.7v-1.2H473.7z M571.4,41c0.1,0,0.1-0.1,0.2-0.1L571.4,41
		C571.4,40.9,571.4,41,571.4,41L571.4,41z M570,43.2c0.7-1.3,1.2-2.1,1.4-2.2c0.6,0.3,0.8,0.8,0.8,1.7l-0.9,5.8l9.1,2.9
		c3.2,0.2,3-4.1-0.6-13.1c0.1-1.5-1.6-3.1-5.2-4.6c-0.3,0-1.6,0.5-4,1.4l-1-0.1c-2-0.1-4.1-1.7-6.2-4.6l-0.5-0.1
		c-7.9,2.4-13.1,5.3-15.7,8.6l-1.1,5.2c-1.2,7.1,0.7,9.5,5.8,7.2c3.9,0.8,6.9,1.3,8.8,1.4l0.5,0.1c1.2-1.5,3.1-2.7,5.8-3.7
		c0.9-1.8,1.7-3.3,2.4-4.5h-0.1l0.1-1.2L570,43.2z M525.1,67.5l0.5-0.2c0.6-0.4,0.7-0.9,0.5-1.4l-1.2-0.1l-0.6,0.3L525.1,67.5z
		 M569.3,44.4l1.2,0.1l0.1-1.2l-0.6-0.1C569.8,43.6,569.6,44,569.3,44.4L569.3,44.4z M531.1,110.2v0.4c0.1,0.5,0.3,0.7,0.7,0.7
		l0.4-0.7v-0.4H531.1z M543.3,67.9c-0.3,1.2-0.8,2.1-1.3,2.6c0.1,1.5,0.4,2.3,0.9,2.4l0.7,0.1l-0.3-0.7l0.7-3.9L543.3,67.9z
		 M525.7,91.3l-1.2-0.1v0.4c0,0.5,0.2,0.8,0.7,0.8l0.8,0.1v-0.4L525.7,91.3z M525.1,89.7l0.1-0.4c-0.3-1-0.7-1.6-1.1-1.6
		c0,0.2-0.2,0.6-0.5,1.1c0.6,0.6,1,0.9,1.1,0.9L525.1,89.7z M533.9,71.2l0.1-1.2l-1.2-0.1l-0.1,1.2L533.9,71.2z M523.2,92.6l0.2-2.2
		l-1.1-0.1v0.4c0,0.3,0.1,0.5,0.3,0.5l-0.4,0.7v0.7L523.2,92.6z M524.3,94.7l0.1-0.4c-0.1-0.5-0.3-0.8-0.7-0.8l-0.4,0.7l0.7,0.4
		L524.3,94.7z M509,91.3l-0.5,0.2c-1,1.2-1.4,2.1-1.1,2.5c0.3-0.2,0.9-0.2,1.7-0.2c0.2-1.2,0.2-1.9,0.1-2.1L509,91.3z M602.2,31.4
		l-0.1,2.3l2.2,0.2l0.2-2.3L602.2,31.4z M511.5,84.7l-3,1.4l0.7,1.5l0.4-0.2c0.4-0.2,0.5-0.4,0.4-0.8l1.2,0.1l1-0.5L511.5,84.7z
		 M513.3,81.9l-0.5,0.2c-0.6,0.5-0.7,1-0.5,1.5l1.2,0.1l-0.1-1.3L513.3,81.9z M508.1,82.6c-0.5-0.6-1-0.8-1.6-0.5l-0.9,0.5l0.5,0.9
		c0.3-0.1,0.9-0.2,1.7-0.1C507.6,83.1,507.7,82.8,508.1,82.6L508.1,82.6z M508.1,82.6l0.7,1.6l0.4-0.3c0.7-0.3,0.8-0.8,0.5-1.4
		l-0.5-1.1l-0.5,0.2L508.1,82.6z M525.7,91.3c0.5,0,0.8-0.3,0.8-0.7l0.1-0.7l-0.7-0.1c0,0.2-0.2,0.6-0.5,1.1
		C525.7,90.9,525.8,91,525.7,91.3L525.7,91.3z M528.5,39.6l-3.2-0.2l-0.5-4.2l0.2-2.5c0.1-0.7,1.5-2,4.3-3.9c2.2,1.3,3.2,2.8,3,4.4
		C529.8,36.4,528.6,38.5,528.5,39.6L528.5,39.6z M541.7,77.4l-0.6-0.1v-0.5c-1-1-2.1-2.4-3.5-4.2v0.2c0.8,1.9,1.2,3.1,1.2,3.5
		c-0.3,0.5-0.5,0.9-0.5,1.1l0.8,0.4l0.1-1.1h0.4c-0.1,0.9,0.4,1.6,1.4,2.1c0.7,0,1.2-0.3,1.2-1C542,77.8,541.8,77.6,541.7,77.4
		L541.7,77.4z M553.3,60.4l-0.2,2.3l-1.7-0.1l0.1-0.9c0.1-0.4,0.2-0.8,0.4-1.1c-2.5,0.5-3.8,0.9-3.8,1.1c-0.3,0.4-0.5,0.8-0.6,1.4
		l-0.1,0.8c-0.3,4.4,2.5,8.1,8.5,11.1c0.5,0,0.8-0.1,0.8-0.3l4.6,0.7l3.9,0.3c3.7,0.3,8.7-2.8,14.9-9.3c0.5,0,1.1-0.2,2-0.6
		c3.5,0.2,5.7,2.2,6.6,5.9c0.1,1.4,0.2,2.4,0.1,3.1c-2.1,4.2-3.9,6.4-5.5,6.5c-0.4,0-1.5,0.8-3.2,2.5l-6.8,2.9l-2.3-0.6
		c-0.1,1.6-1.7,2.5-4.8,2.8c-2.1-0.7-3.5-1.1-4.2-1.1l-0.8,0.4c-1.6-0.9-3.1-1.4-4.5-1.6c-1.7,0.4-2.9,0.5-3.5,0.5
		c-2.4-1.7-4.2-2.7-5.2-2.7c-1.5-0.1-2.8-2-4.2-5.7c-0.3,0-0.6-0.2-1.1-0.5l-0.1,1.6l-0.7-0.4l-1.2-0.1v0.4h0.8l-0.1,0.4l-1.6-0.1
		l-0.7-0.4l0.4-0.7v-0.4c-1.8-0.1-2.7-0.8-2.5-2.1l0.1-1.2c-0.5,0-0.7-0.3-0.7-0.8l0.1-0.8l0.8-1.1c-1.2-1-1.7-1.8-1.7-2.4h-0.4
		l-0.7,0.3c0-0.3-0.1-0.7-0.3-1.2c0.3-0.4,0.5-0.8,0.5-1.1h0.4l1.1,1.7c0.3,0,0.6,0.3,1,0.9c-0.2-0.9-0.7-2-1.4-3.3
		c0-0.7-0.1-1.5-0.2-2.1c-0.8,0.7-2.2,1.7-4.3,2.9c-1.7-0.9-2.7-1.9-3.2-3l-0.1,2.9l1,0.8c-0.3,0.2-0.4,0.4-0.2,0.7
		c-3.9-0.3-6.3-1.6-7.4-3.8l-0.8-1.6l2.5-1.2l0.5,1l-1.5,0.8l0.5,1c0.7-0.4,2.4-0.8,5-1.3c-0.1-0.2-0.1-0.5,0.1-0.7l0.1-0.3
		c2.9-3.3,4.3-5.5,4.4-6.6l0.7,0.1c-0.1-0.3-0.1-0.5-0.1-0.7c0.6-1,1-1.7,1-2.2c-0.5-1-0.6-2.1-0.6-3.5c1.6-7,4.1-13.1,7.6-18.3
		c0.2-3.2,3-5.4,8.2-6.7c2.9-3.2,7.4-4.5,13.4-4c0-0.2,1.3-0.4,3.9-0.8c9.8,3,14.7,5.4,14.6,7.2c0.3,0,1.2,1,2.9,2.9l-1.1,6.5
		l1.4,0.9c0.5-2,1.2-3.5,2.1-4.5c0.2,0.2,0.3,0.4,0.5,0.6c1.2,0.1,1.8,1,1.7,2.5c3.3,4,4.8,8,4.5,11.9c0.5,0,0.7,0.6,0.6,1.9
		l-0.9,2.6v0.4l0.6,1.2l-0.1,1.6c-0.1,1.5-0.9,2.8-2.5,3.7h-0.4c-3.7-0.3-6.4,0.1-8.2,1.3c-1.6-0.6-2.8-1-3.8-1.1
		c-1.7,0.9-4.6,1.4-8.6,1.7h-0.4c-3.4-1.6-5.6-2.4-6.4-2.4l-0.4-0.1c-3.1,1.8-5.1,2.7-6,2.6c-1.2-1.1-2-1.6-2.2-1.6
		C553.8,60.2,553.6,60.3,553.3,60.4L553.3,60.4z M519.2,77.1c0-0.2-0.1-0.5-0.2-0.9h0.7l-0.1,1.1h-0.4L519.2,77.1l-3,1.4l-0.2-0.4
		c0.5-0.3,1-1,1.5-2L519.2,77.1z M612.7,36.7l-0.4-0.1l-1.2-1.7c-0.5,0-1.1-0.8-1.9-2.3c0,0.3-0.2,0.4-0.5,0.4l0.4,0.8
		c-0.3,0.5-0.5,1-0.5,1.3l-0.4-0.1l0.1-2.1c0.6-0.7,0.9-1.2,0.9-1.7c-1-2.2-1.4-3.5-1.4-4c0.3-0.5,0.5-0.9,0.5-1.2l-0.9-0.5
		l-0.1,1.2l-0.4-0.1c0-1-0.5-1.7-1.5-2.2c-0.9-0.1-1.4,0.3-1.4,1.2l-0.4-0.1l0.1-2.1l0.8,0.4l1.3,0.1l0.1-0.4l-0.9-0.1v-0.4l1.7,0.1
		l0.8,0.5l-0.5,0.7l-0.1,0.4c2,0.2,3,1,2.9,2.4l-0.1,1.3c0.5,0,0.8,0.3,0.7,0.9l-0.1,0.9l-0.9,1.2c1.3,1,1.9,1.9,1.9,2.7l0.5,0.1
		l0.9-0.4c0,0.3,0.1,0.8,0.3,1.4C612.8,35.9,612.7,36.3,612.7,36.7L612.7,36.7z M524.4,81.9c0,0,0.1,0.1,0.1,0.1v-0.1H524.4z
		 M523,82.7v-1c-0.4-0.9-1.3-1.1-2.7-0.6c-0.2-0.5,0.2-1.2,1.2-2.4c1.1,0.5,1.8,0.9,2.1,1.4c0,0.4,0,0.7,0,1l1.4,0.1l0.7,0.4
		c0-0.2,0.1-0.4,0.4-0.4l-0.3-0.7l0.1-0.8c1.5,0.1,2.3-0.3,2.4-1.3c0.5-0.2,0.9-0.4,1.2-0.4v0.4c-0.9,1.5-1.7,2.2-2.5,2.1
		c-0.2,1.2-0.6,1.8-1.3,1.8c0.5,1.1,0.7,1.9,0.6,2.4c-0.3,0-0.4,0.1-0.4,0.3l1.5,0.5l-0.1,0.7l-1.9-0.5l-0.4-0.1l-0.8,0.3
		c0-0.2-0.1-0.6-0.3-1.1l0.8-0.3l-0.3-0.9l0.1-1.7l-0.8,0.4l-0.1,1.2l-0.7-0.4l-0.1,0.4c0.5,0,0.7,0.3,0.7,0.8V85h-0.4
		c-0.4,0-0.7-0.8-1-2.4L523,82.7z M523.8,105.4c-0.5-0.3-0.9-0.4-1.1-0.4c0,0.3-0.1,0.4-0.4,0.4v-1.2l0.7,0.4c0.7,0,1.1-0.5,1.2-1.5
		c0.4,0,0.7,0.5,1.1,1.5C524.7,105.1,524.2,105.4,523.8,105.4L523.8,105.4z M533.1,106.9h-0.4c-0.5-0.1-0.8-0.3-0.8-0.7v-0.4
		C532.3,105.8,532.7,106.1,533.1,106.9L533.1,106.9z M522.3,108.8h-0.4l-0.4-1.6h0.8L522.3,108.8z M549.2,113.4h-0.7
		c0-0.4-0.3-0.9-0.8-1.5V110h0.8C548.7,111.7,548.9,112.9,549.2,113.4L549.2,113.4z M526.9,116.5l-1.9-0.4v-1.6
		c0-0.4,0.4-0.8,1.2-1.2h1.5l-0.7,1.2l0.4,0.7C527,115.8,526.9,116.2,526.9,116.5L526.9,116.5z M539.5,87.7h0.4c0,0.4,0.3,1.1,1.1,2
		c-0.5,1-0.9,1.5-1.3,1.4h-0.4L539.5,87.7z M543.8,112.8c0,0.5,0.4,1.3,1.1,2.3c-1.2,1.5-1.9,2.3-2.3,2.3l-1.5-1.9L543.8,112.8z
		 M540.8,112.8h0.7v0.4c-1.3,1.3-1.9,2.2-1.9,2.7c-0.5-0.2-0.9-0.4-1.2-0.4v-0.7C538.8,114.8,539.5,114.1,540.8,112.8L540.8,112.8z
		 M534.6,111.3h0.4v0.4c0,0.5-0.2,0.8-0.7,0.8h-0.4V112C533.9,111.5,534.2,111.3,534.6,111.3L534.6,111.3z M533.4,108.2h1.2v1.9
		h-0.8V109h-0.7c0,0.6-0.2,1.8-0.7,3.5c0.2,0,0.4,0.1,0.4,0.4h-0.4l-2.3-1.2l-0.8,0.4c0-0.2-0.1-0.4-0.4-0.4
		C530.2,109.4,531.7,108.2,533.4,108.2L533.4,108.2z M542.3,82.4l0.2,1.9c-0.2,0-0.5-0.4-1-1.2c-0.5,0.2-1,0.3-1.2,0.2l-0.1,0.7
		c1.5,2.2,2.5,3.3,2.9,3.4c-0.3,0.5-0.5,0.8-0.6,1.1l-0.7-0.1c0-0.7-0.3-1.2-1-1.6l-1.4-2C539.5,83.1,540.5,82.3,542.3,82.4
		L542.3,82.4z M535.8,80.8l1.6,0.1l-0.1,0.7c-0.4-0.3-0.9-0.5-1.5-0.5L535.8,80.8z M528.7,102.8h0.4c0,0.4,0.2,0.9,0.7,1.6l-1.1,0.7
		V102.8z M496.9,104.9l0.2,0.5c-0.3,0.2-0.7,0.6-1.1,1.3l-0.6-0.9L496.9,104.9z M503.2,91.4l0.9,2.7l0.2,0.5l1.1,0.7
		c-0.3,0.2-0.7,0.6-1.1,1.4l-1.1-0.7l-0.7,1.1l-2.4,1.4l0.6,1l2.4-1.4l0.1,1.2l0.5-0.3c-0.4-0.6-0.2-1.1,0.4-1.5l0.5-0.3l0.2,0.5
		c0.3,0.5-0.4,1.5-2.1,3.1l-0.8-1.4l-1,0.6l-0.7,1l-1.4-2.4l-0.1-1.2c-0.3,0.2-0.6,0.1-0.7-0.2l-0.7,1l-1,0.6
		c-1.2-1.9-2.4-2.5-3.6-1.8c-0.7-0.4-1.2-0.8-1.4-1.2l0.6-0.3c2.5-0.1,4.1,0.3,4.6,1.2c1.7-0.7,2.7-0.7,3.2,0.1
		c1-1.5,1.7-2.4,2.4-2.8c0.2,0.4,0.5,0.5,0.8,0.3l-0.7-2.2L503.2,91.4z M517.1,66.9l0.2,0.4c0.2,0.8,0.1,1.3-0.4,1.6l-0.6,0.2
		C516.1,68.7,516.4,68,517.1,66.9L517.1,66.9z M529,79.9l0.2,0.4l-1.7,1.6l-0.5-1.1L529,79.9z M483.3,31.6h0.7c2,1.5,3,2.9,3,4.2
		l-0.7,0.4c0-0.8-0.9-1.7-2.7-2.7c-0.8,0.5-1.6,0.7-2.3,0.7c0-1.3,0.6-2.1,1.9-2.3L483.3,31.6z M564.7,11.2l1.1,0.1l-0.1,1.1
		c-0.2,0-0.6,0-1.1,0.2L564.7,11.2z M613.4,49.3l1,0.3v0.2c-0.4,0-0.6,0.1-0.7,0.6c2.5,0.8,3.7,1.6,3.7,2.4l0.2,0.1
		c0-0.3,0.4-0.5,1.3-0.6c1,0.5,1.4,0.8,1.4,1c-0.9,0.2-1.6,1.1-2.1,2.5l-0.9,0.2c0-0.2-0.1-0.2-0.2-0.2c0,0.3-0.2,0.5-0.4,0.4
		c0-0.6-0.1-0.9-0.4-0.9l-0.4,0.1c-0.2-0.1-0.5-0.2-0.9-0.2c0,0.3-0.1,0.4-0.4,0.4c0-0.3-0.3-0.9-1.1-1.9c0.8,0,1.3-0.4,1.6-1.2
		c0-0.6-0.5-0.9-1.6-0.9c0,0.2-0.1,0.4-0.4,0.4c-0.4-0.6-0.5-1.1-0.5-1.6C613,49.6,613.3,49.3,613.4,49.3L613.4,49.3z M564.2,10.6
		l0.4,0.8c0,1.3-0.2,1.9-0.7,1.9c-0.5-0.3-0.9-0.4-1.2-0.4V11C562.8,11,563.3,10.8,564.2,10.6L564.2,10.6z M498.1,24.1h0.7
		c1.7,1,2.9,1.5,3.8,1.5v1.6h-1.5C500.4,27.1,499.4,26.1,498.1,24.1L498.1,24.1z M529.6,79.3l3,0.2c0.7,0,1.4,1.1,2,3.2l-0.7-0.1
		l-4.4-1.1L529.6,79.3z M488.4,26.9h1.5c0,1,2.2,2,6.7,3v1.5h-0.7l-6.7-3L488.4,26.9z M646.3,16.6h1.2v1.6c0,0.5-0.3,0.7-0.8,0.7
		c-0.4,0-0.7-0.4-1.1-1.1v-0.4C645.6,16.9,645.8,16.6,646.3,16.6L646.3,16.6z M666.3,20.5h1.9c0,0.8,0.5,1.2,1.6,1.2
		c0.5-0.2,0.9-0.4,1.2-0.4V22H667c-0.2,0-0.4,0.1-0.4,0.4c-0.5-0.2-0.9-0.4-1.2-0.4c0.3-0.5,0.4-0.9,0.4-1.2h0.4v0.8h1.2v-0.8h-1.2
		L666.3,20.5z M650.1,23.2h1.6c0,0.5,0.3,0.7,0.8,0.7v0.4c0,0.4-0.4,0.8-1.2,1.2H649c0-0.8-0.3-1.2-0.8-1.2v-0.7L650.1,23.2z
		 M681.8,32.9h0.4c0,0.3,0.1,0.7,0.4,1.2l-0.7,0.4H681v-0.7C681,33.1,681.3,32.9,681.8,32.9L681.8,32.9z M675.9,38.7h0.4
		c1,0.2,1.9,0.4,2.7,0.4v1.6c0,0.5-0.2,0.7-0.7,0.7h-0.4V41l0.7-1.2v-0.4h-1.9C676.2,39.5,675.9,39.2,675.9,38.7L675.9,38.7z
		 M663.6,39.1h0.4l1.1,0.7l1.2-0.7h0.4c0.4,0,1,0.6,1.9,1.9H667l-1.1-0.8h-0.4V41h-0.7l-1.9-0.4v-0.4
		C663.3,40.2,663.6,39.8,663.6,39.1L663.6,39.1z M671,39.5h1.1c0,0.8,0.1,1.7,0.4,2.7c-0.8-0.5-2.1-0.8-3.9-0.8V41
		C670.2,41,671,40.5,671,39.5L671,39.5z M674,39.5h0.4c0.4,0,0.9,0.8,1.5,2.3c2.7,0.3,4.2,0.4,4.7,0.4c0.4,0,1.1-0.7,2.3-2h0.4v1.2
		c-0.5,0.6-0.8,1.1-0.8,1.6h-3.9l-5.4-1.2C673.7,40.7,674,40,674,39.5L674,39.5z M689.5,41.4h0.8v0.4c0,0.4-0.5,0.9-1.6,1.6
		c0-0.5-0.3-0.7-0.8-0.7v-0.4C688.3,42.2,688.9,41.9,689.5,41.4L689.5,41.4z M667.8,42.2c0.2,0,1.1,0.2,2.7,0.7l1.6-0.7
		c0.5,0.6,0.8,1.1,0.8,1.5c-0.3,0.5-0.4,0.9-0.4,1.2h-1.1c0-0.8-0.3-1.2-0.8-1.2h-0.7v0.4c0.5,1,1.3,1.6,2.3,1.6V46H671
		c-0.5-0.2-0.9-0.4-1.2-0.4v0.7h0.7v0.7h-0.4l-1.2-0.7l-0.7,0.4c0-0.6-0.1-1.1-0.4-1.6c0.2-0.5,0.4-1,0.4-1.6
		C668,42.8,667.8,42.3,667.8,42.2L667.8,42.2z M686.4,42.6h0.4c0,0.2-0.1,0.4-0.4,0.4c0.3,0.5,0.4,0.9,0.4,1.2l-0.4,2.7h-0.7L686,46
		v-1.2h-1.1l0.7-1.2c-0.2,0-0.4-0.1-0.4-0.4L686.4,42.6z M675.6,43.3c0.8,0.5,1.5,0.8,1.9,0.8l-0.4,0.7l0.8,0.4h1.9
		c0-0.5-0.4-0.7-1.2-0.7v-0.4h1.2v0.4l0.7-0.4h1.2v1.1l-0.4,0.8l-2.7-0.4h-1.2c0,1-0.2,1.5-0.7,1.5h-0.8c0.5,1,1.3,1.6,2.4,1.6
		c0,0.5-0.3,0.8-0.8,0.8c-1.8-0.2-2.7-0.6-2.7-1.2c0.2-0.5,0.4-0.9,0.4-1.2c-1-0.5-2-0.7-3.1-0.7V46c1.3,0,2.2-0.8,2.7-2.4
		C674.8,43.4,675.1,43.3,675.6,43.3L675.6,43.3z M675.9,44.5l-0.4,0.7c0,0.4,0.4,0.8,1.2,1.2h0.4v-0.7
		C677.1,45.3,676.7,44.9,675.9,44.5L675.9,44.5z M683.3,44.1c0.5,0,0.7,0.4,0.7,1.1v0.4h-0.4L683.3,44.1z M681.8,46.4h0.4
		c0.5,0.1,0.7,0.3,0.7,0.7v0.4c0,0.2-0.1,0.4-0.4,0.4l0.4,0.7v0.8c-1.4-0.2-2.4-0.4-3-0.4l0.4-0.8l-0.4-0.7
		C680.3,47.6,680.9,47.2,681.8,46.4L681.8,46.4z M672.9,47.2h0.4v1.2c-0.5-0.2-0.9-0.4-1.2-0.4C672.2,47.4,672.4,47.2,672.9,47.2
		L672.9,47.2z M666,48.3h0.4c0,0.5,0.2,1.2,0.7,2.3h-0.7c-0.5,0-0.8-0.4-0.8-1.1C665.9,49,666,48.6,666,48.3z M664.5,49.2v0.4
		c-0.2,0.5-0.4,0.9-0.4,1.1h-0.7v-0.4C663.4,49.9,663.7,49.5,664.5,49.2z M644,53.4c0.4,0,0.8,0.9,1.1,2.7h-0.7L644,53.4z
		 M654.8,87.4l1.9,0.8h1.2v0.4h1.1c0.5,0,0.8-0.2,0.8-0.7c0.8,0.2,1.2,0.5,1.2,0.7l0.7-0.4c4.1,0.2,6.2,0.6,6.2,1.2h-5.4l-2.3-0.4
		c-0.5,0.3-0.9,0.4-1.2,0.4c-3.2-0.5-5.2-0.8-5.8-0.8v-0.4C654.3,88.2,654.8,87.9,654.8,87.4L654.8,87.4z M653.3,90.1h3.1
		c0,0.8,0.2,1.2,0.7,1.2l-0.4,0.7l0.4,0.8H656l-1.9-0.4v-0.7l0.7,0.4h0.7v-0.4c0-0.5-0.2-0.8-0.7-0.8l-1.2,0.8H651
		c-0.5,0-0.8-0.3-0.8-0.8h3.1L653.3,90.1z M667.6,90.1c0,0.8,0.4,1.2,1.2,1.2c0,0.4-0.5,0.7-1.6,1.1v-1.1h-0.4
		c-0.5,0.1-0.8,0.3-0.8,0.7v0.4h1.2v0.4c-0.5,0-0.7,0.1-0.7,0.4l-0.8-0.4l-2.7,0.4v-0.4l-0.8,0.4h-2.3c0.1-0.5,0.3-0.8,0.7-0.8
		l-0.4-0.7v-0.4c0.1-0.5,0.4-0.8,0.8-0.8h3.9v0.4h-2.7v0.8c0.7,0,1.3,0.2,1.9,0.7C665.3,91.5,666.4,90.7,667.6,90.1L667.6,90.1z
		 M658.3,90.5l0.7,1.2c0,0.5-0.2,0.7-0.7,0.7c0-0.4-0.2-0.9-0.7-1.6L658.3,90.5z M725.2,42.4l0.9,0.1v0.9l-0.4,0.8
		c-0.6-0.3-1-0.5-1.4-0.6v-0.4C724.4,42.6,724.7,42.3,725.2,42.4L725.2,42.4z M688,42.3l1.2,0.1c0,0.9,0.1,2,0.4,3.2
		c-0.9-0.7-2.4-1.2-4.4-1.4v-0.4C687.1,44,688,43.5,688,42.3L688,42.3z M693.9,42.8l0.5,0.1c0.5,0,1,1,1.7,2.8
		c3.1,0.7,4.8,1,5.3,1.1c0.4,0,1.3-0.6,2.6-1.9l0.5,0.1v1.3c-0.6,0.6-0.9,1.2-0.9,1.7l-4.4-0.6l-6.1-2.1
		C693.6,44.1,693.9,43.3,693.9,42.8L693.9,42.8z M711.4,47l0.9,0.1v0.4c0,0.5-0.6,1-1.7,1.6c0-0.6-0.3-0.9-0.9-0.9v-0.4
		C710.2,47.8,710.7,47.5,711.4,47L711.4,47z M684.4,45c0.2,0,1.2,0.4,3,1.2l1.7-0.6c0.6,0.8,0.9,1.4,0.9,1.8c-0.3,0.6-0.5,1-0.5,1.3
		l-1.3-0.2c0-0.9-0.3-1.3-0.9-1.4l-0.9-0.1v0.5c0.6,1.2,1.5,1.9,2.6,2.1v0.4l-1.2-0.1c-0.6-0.3-1-0.5-1.4-0.6V50l0.9,0.1V51h-0.4
		l-1.4-1l-0.8,0.3c0-0.7-0.1-1.3-0.4-1.8c0.3-0.5,0.4-1.1,0.4-1.7C684.6,45.7,684.4,45.1,684.4,45L684.4,45z M708,47.9l0.4,0.1
		c0,0.3-0.1,0.4-0.4,0.4c0.3,0.6,0.4,1.1,0.4,1.4l-0.4,3l-0.9-0.1l0.4-0.8v-1.4l-1.3-0.1l0.9-1.2c-0.3,0-0.4-0.2-0.4-0.5L708,47.9z
		 M693.2,47.3c1,0.7,1.7,1.1,2.2,1.2l-0.4,0.8l0.9,0.5l2.2,0.3c0-0.6-0.5-0.9-1.4-1v-0.4l1.4,0.1v0.4l0.8-0.3l1.4,0.1v1.3l-0.4,0.9
		l-3.1-0.8l-1.3-0.2c0,1.2-0.3,1.7-0.9,1.6l-0.9-0.1c0.6,1.2,1.5,1.9,2.7,2.1c0,0.6-0.3,0.8-0.9,0.8c-2-0.5-3-1.1-3-1.7
		c0.3-0.5,0.4-0.9,0.4-1.2c-1.1-0.7-2.3-1.1-3.5-1.3v-0.4c1.5,0.2,2.5-0.6,3.1-2.3C692.3,47.4,692.6,47.3,693.2,47.3L693.2,47.3z
		 M704.5,49.3c0.6,0.1,0.9,0.5,0.9,1.4v0.5l-0.4-0.1L704.5,49.3z M702.7,51.6l0.4,0.1c0.5,0.2,0.8,0.5,0.8,0.9v0.5
		c0,0.3-0.1,0.4-0.4,0.4l0.4,0.9v0.9c-1.6-0.5-2.7-0.7-3.4-0.8l0.4-0.9l-0.4-0.9C701,52.8,701.7,52.4,702.7,51.6L702.7,51.6z
		 M554.7,99.9c0,0,0-1.5,0.1-4.4c0,0,0,0.6-0.1,1.8l0.1-2.7c0-0.5,0.1-1.4,0.2-2.5c0.2-3,0.3-6.1,0.5-9.3
		c1.7-34.9,2.5-52.6,2.5-53.1c0-0.5,0.1-0.8,0.1-0.8c0.2-3.1,0.2-4.7,0.2-4.7h0.2c-0.1,1.9-1,22.2-2.9,61l-0.1,0.9
		c-0.2,2.9-0.5,5.8-0.6,8.5L554.7,99.9z M557.6,99.9c0,0,0-1.4,0.1-4.2c0,0,0,0.6-0.1,1.8l0.1-2.7c0-0.5,0.1-1.4,0.2-2.5
		c0.1-3,0.3-6.1,0.5-9.3c1.6-34.9,2.5-52.6,2.5-53.1c0-0.5,0-0.8,0-0.8c0.2-3.2,0.3-4.9,0.3-4.9h0.2c-0.1,2-1.1,22.4-2.9,61.2v0.9
		c-0.2,2.9-0.5,5.8-0.6,8.5L557.6,99.9z M562.6,99.9c0,0,0-1.6,0.1-4.7c0,0-0.1,0.6-0.1,1.8l0.1-2.6c0-0.6,0.1-1.4,0.1-2.5
		c0.2-3.1,0.3-6.2,0.5-9.4c1.7-34.9,2.5-52.6,2.6-53.1c0-0.5,0-0.8,0-0.8c0.2-2.9,0.3-4.3,0.3-4.3h0.2c-0.1,1.7-1.1,21.9-2.9,60.7
		l-0.1,0.8c-0.2,2.9-0.4,5.8-0.6,8.6C562.8,94.4,562.7,96.2,562.6,99.9L562.6,99.9z M594.3,24.3c-0.1,3.7-0.2,5.5-0.2,5.5
		c-0.1,2.7-0.2,5.6-0.4,8.5v0.9c-2.5,38.8-3.8,59-3.9,60.7h-0.2c0,0,0.1-1.5,0.2-4.4c0,0,0-0.3,0.1-0.8c0-0.5,1.1-18.2,3.4-53
		c0.2-3.2,0.4-6.4,0.6-9.4c0-1.1,0.1-1.9,0.1-2.5l0.2-2.6c-0.1,1.2-0.1,1.7-0.1,1.7C594.1,25.8,594.2,24.3,594.3,24.3L594.3,24.3z
		 M594.5,99.9c0.2-3.6,0.2-5.4,0.2-5.4c0.2-2.7,0.3-5.6,0.4-8.5l0.1-0.9c2.5-38.8,3.8-59,3.9-60.8h0.2c0,0,0,1.5-0.2,4.5
		c0,0,0,0.3-0.1,0.8c0,0.5-1.1,18.2-3.4,53c-0.2,3.2-0.4,6.4-0.6,9.4c0,1.1-0.1,1.9-0.1,2.5l-0.2,2.6c0-1.2,0.1-1.7,0.1-1.7
		C594.7,98.4,594.6,99.9,594.5,99.9L594.5,99.9z M590.9,99.9c0.2-3.9,0.2-5.8,0.2-5.8c0.2-2.8,0.3-5.6,0.4-8.6l0.1-0.8
		c2.5-38.8,3.8-58.9,3.9-60.4h0.2c0,0,0,1.3-0.2,4c0,0,0,0.3-0.1,0.8c0,0.5-1.1,18.2-3.4,53.1c-0.2,3.2-0.4,6.3-0.6,9.4
		c0,1.1-0.1,1.9-0.1,2.5l-0.2,2.6c0-1.2,0.1-1.8,0.1-1.8C591.1,98.2,591,99.9,590.9,99.9L590.9,99.9z M612.5,59.9
		c-0.3,4.9-0.6,9.2-0.9,13.1c1,1.9,1.7,3.7,2.2,5.5l0.8,0.9l0.4,0.4l2.4,2.6c0.4-6.8,0.8-12.9,1.2-18.5c-0.8-0.1-1.8-0.5-2.8-1.1
		c-0.1,0-0.2-0.1-0.4-0.2C614.5,61.9,613.5,61,612.5,59.9L612.5,59.9z M608.6,58.4h-1.3l-1.9-0.4l0.7-1.2c-0.2,0-0.4-0.1-0.4-0.4
		c0.7,0,1.1-0.3,1.1-0.8c-0.2,0-0.4-0.1-0.4-0.4l-0.7,0.4l-2.4-1.1l0.4-0.8c-0.3,0-0.6-0.4-0.9-1.2c-0.2,4.1-0.4,8.7-0.6,13.7
		c0.4-0.2,0.9-0.3,1.5-0.4c1.8,0.5,3.2,1,4.2,1.6C608.2,64.2,608.4,61.2,608.6,58.4L608.6,58.4z M608.6,57.7v-0.6
		c-0.4-0.1-0.8-0.1-1.4-0.2h-0.4v0.7c0.5,0,0.8,0.1,0.8,0.4l0.7-0.4L608.6,57.7z M609.2,58.4h-0.3c-0.2,2.8-0.4,5.9-0.6,9.1
		c0.1,0.1,0.2,0.2,0.3,0.2C608.8,64.5,609,61.4,609.2,58.4L609.2,58.4z M609.3,57.2c-0.1,0-0.2-0.1-0.3-0.1c0,0.2,0,0.4-0.1,0.6
		l0.3,0.1C609.3,57.6,609.3,57.4,609.3,57.2z M616.4,42.4c-0.2,0.2-0.2,0.3-0.2,0.5l0.2,0.3l0.3,0.6l1.4,2.5
		c-0.2,2.8-0.4,5.3-0.4,7.3c0,0.6,0.5,1.2,1.4,1.7c0.4-5.9,0.7-11,1-15.2c-1.6,0.7-2.7,1.3-3.3,1.8
		C616.6,42.2,616.5,42.3,616.4,42.4L616.4,42.4z M610.8,58.1c0-0.3-0.4-0.6-1.1-0.8v0.6L610.8,58.1z M610.8,58.1v0.4h-1.2
		c-0.2,3-0.4,6.2-0.6,9.6c0.9,0.8,1.4,1.7,1.4,2.7c0,0.1,0.1,0.2,0.2,0.2c0.2-4.5,0.5-8.6,0.7-12.4
		C611.1,58.5,610.9,58.3,610.8,58.1L610.8,58.1z M612.1,59.6c-0.2-0.2-0.4-0.4-0.6-0.6c-0.2,3.8-0.5,8-0.7,12.6
		c0.2,0.3,0.3,0.6,0.5,0.9C611.6,68.7,611.8,64.4,612.1,59.6L612.1,59.6z M633,29.8c0-0.2,0-0.3,0.1-0.5c-0.1,0-0.2,0.1-0.2,0.1v0.4
		L633,29.8z M638.4,85.9v-0.4h1.2c0,0.2,0,0.4,0.1,0.7c3.3-0.8,6.3-2.8,8.9-6.1c0-0.6,0.5-1.7,1.6-3.5c-1.3-2.3-1.9-3.9-1.9-4.6
		l0.4-2.7l-3.5-2.3l-1.9,1.1h-1.6c-0.2,0-0.9-0.6-1.9-1.9l-2.3,0.4h-0.4c-0.4,9-0.7,15.9-1,20.6c0.9-0.4,1.4-0.8,1.4-1.2L638.4,85.9
		z M631.2,56.8c0.5-7.2,0.8-13.1,1.2-17.9c-2.7-0.1-4.2-0.2-4.7-0.2c-1.3,0-1.9,0.2-1.9,0.7l-1.9-0.4h-0.7c-1,0.4-1.9,0.7-2.7,1.1
		c-0.2,4-0.6,9.2-1,15.5c1.3,0.7,3.4,1.2,6.3,1.6c1.9-0.5,3.1-0.7,3.5-0.7C630,56.5,630.6,56.6,631.2,56.8L631.2,56.8z M629.3,88.5
		c0-0.8,0.1-1.7,0.1-2.5v-0.9c0.5-7.5,0.9-14.3,1.3-20.5l-6,1.9c-1.9-1.6-3.8-2.5-5.8-2.7c-0.3,5.6-0.7,11.9-1.2,18.8v0.1l1.9,2.1
		c1.6,0.1,3.4,1.4,5.4,3.9h3.9C629,88.6,629.2,88.6,629.3,88.5L629.3,88.5z M629.3,93.5c0,0.4-0.1,0.8-0.1,1.1l-0.2,2.1
		c-0.1,2.2-0.2,3.3-0.2,3.3l0.2-5.3c0-0.4,0-0.7,0.1-1.1c-1.4-0.4-2.5-0.6-3.3-0.6c0-0.3-0.6-0.7-1.9-1.2c-1.3,0.8-2.3,1.2-3.1,1.2
		c-0.3,0-1.5-0.5-3.5-1.5c0,0.2-0.1,0.4-0.1,0.6c-0.1,1.1-0.1,1.9-0.2,2.5l-0.2,2.6c0.1-1.2,0.1-1.7,0.1-1.7c-0.1,3-0.2,4.5-0.2,4.5
		l0.2-5.4c0-1.1,0.1-2.2,0.1-3.3c-0.7-0.4-1.5-0.8-2.5-1.3c-0.1,0-0.2-0.1-0.2-0.1h-1.2c-0.4,0-1.2,0.2-2.5,0.6
		c-0.3,5.8-0.5,9-0.6,9.6h-0.3l0.2-4.4v-0.8c0-0.2,0.1-1.6,0.3-4.3c-0.2,0-0.4,0.1-0.6,0.1c0,0.5-0.1,1-0.1,1.5
		c0,1.1-0.1,1.9-0.1,2.5l-0.2,2.7c0.1-1.2,0.1-1.8,0.1-1.8l-0.2,4.5l0.2-5.3c0-1.3,0.1-2.6,0.2-3.9c-0.6,0.2-1.2,0.4-1.9,0.6
		c0,0.2-0.1,0.5-0.1,0.7c0,1.1-0.1,1.9-0.1,2.5l-0.2,2.6l0.1-1.7c-0.2,3-0.3,4.5-0.3,4.5c0.2-3.6,0.2-5.4,0.2-5.4
		c0.1-1,0.1-2.1,0.2-3.2c-0.1,0-0.3,0.1-0.4,0.1v0.1c0,1.1-0.1,1.9-0.1,2.5l-0.2,2.6l0.1-1.8c-0.2,3.4-0.3,5-0.3,5
		c0.2-3.9,0.2-5.8,0.2-5.8c0-0.8,0.1-1.7,0.1-2.5c-0.2,0.1-0.3,0.1-0.5,0.2c-2.1-0.8-3.1-2.3-3.1-4.7c0.1-2.1,0.4-3.1,0.8-3.1
		c-0.5-2.8-1.1-5.9-1.9-9.1c-0.2,3.4-0.3,6.9-0.5,10.6l-0.1,0.9c-0.2,2.9-0.5,5.8-0.6,8.5l-0.2,5.1c0,0,0-1.4,0.1-4.2l-0.1,1.7
		l0.1-2.6c0-0.5,0-1.4,0.1-2.5c0.2-3,0.3-6.2,0.5-9.4c0.2-3.3,0.3-6.4,0.4-9.3c0-0.2-0.1-0.3-0.1-0.5c-0.7-1.4-1.1-2.8-1.1-4.2v-1.2
		c0-0.5,0.5-1,1.6-1.4c0.2-5.8,0.5-10.8,0.7-15.1c-0.2-1-0.3-2.4-0.4-4c0.2-1.4,0.4-2.5,0.4-3.5l-0.4-1.9c0.3-0.7,0.6-1.5,0.9-2.1
		c0.3-6.3,0.5-9.6,0.5-9.8l0.1-0.8l0.2-4.8h0.3c0,0.9-0.3,5.8-0.7,14.6c1.7-2.9,3.9-5.2,6.7-7c0.3-4.6,0.5-7.1,0.5-7.6h0.2
		c0,0,0,1.3-0.2,4l-0.1,0.8c0,0.1,0,1-0.1,2.6c0.1-0.1,0.2-0.2,0.3-0.2c0.2-4.2,0.4-6.6,0.4-7.2h0.2c0,0,0,1.5-0.2,4.5l-0.1,0.8
		c0,0.1,0,0.6-0.1,1.7c0.5-0.3,1.1-0.6,1.7-0.9c0.2-3.5,0.3-5.6,0.4-6.1h0.3l-0.2,4.5l-0.1,0.8v0.6c0-0.2,0.2-0.5,0.6-0.6l0.2-2.4
		c-0.1,1.2-0.1,1.7-0.1,1.7l0.2-4.7l-0.2,5.2c0.6-0.2,1.5-0.4,2.7-0.5h3.9c0.2-2.7,0.3-4.3,0.3-4.7h0.3l-0.2,4.5V29h0.8
		c3.4-0.8,5.2-1.2,5.4-1.2h1.6c0.7,0,1.5,0.3,2.3,0.8c0-0.8,0.3-1.2,0.8-1.2l1.1,0.2c0.1-1.9,0.2-3,0.2-3.4h0.2l-0.1,3.4l0.5,0.1
		c-0.1,0.7-0.3,1.2-0.6,1.4V30l5.2,2.1c0-0.7,0.1-1.4,0.1-2.1c0,0,0.1-1.5,0.2-4.4h-1.1v-0.4h1.1c0-0.3,0.1-0.6,0.1-0.9v0.9h0.4v0.4
		h-0.4c0,0.8,0,2-0.1,3.6l0.1-1.8l-0.1,2.6c0,0.6-0.1,1.4-0.1,2.5c0.2,0.3,0.7,0.6,1.4,0.8c3.2,0,6.1-1.4,8.5-4.2
		c0.5-0.2,1-0.4,1.6-0.4c0.8,0,2.1,1,3.9,3.1c0.6,0,1.5,0.9,2.7,2.7c1,0.3,1.6,1.5,1.6,3.5c1,0,3.5,0.3,7.3,0.8v0.4
		c-0.9,0.2-1.4,0.4-1.6,0.4c0-0.5-0.2-0.7-0.7-0.7H663v1.5c0,0.7,1,1.3,3,2l-0.4,0.7v0.4c0,0.5,0.9,0.9,2.7,1.2v0.4
		c-1.8,0-2.7,0.8-2.7,2.3v0.4c-1.5-0.2-2.3-0.9-2.3-1.9h-1.2l-0.4,1.5h-0.4v-1.5h-2.4l-0.7-0.4v1.2h1.2v0.4c-0.8,0-1.2,0.3-1.2,0.8
		v5.8c-0.7,1.3-1.7,1.9-3.1,1.9h-1.1c-1.6,0-3-1.4-4.3-4.2c-4.4-1.6-6.6-2.9-6.6-3.9c0-3.9-1-5.8-3-5.8c-0.7-0.2-1.3-0.4-1.9-0.6
		c0,0.3-0.1,0.7-0.1,1c-0.2,5-0.5,9.6-0.7,13.9c1.1-0.8,1.8-1.6,2.2-2.3l0.8-0.4c0,0.2,0.1,0.4,0.4,0.4c-0.2,1.5-0.9,2.3-1.9,2.3
		v0.8c1.8,1.5,4,2.3,6.6,2.3c0.4,0.6,2.1,1.6,5,3.1c0,0.5,1.8,2.3,5.4,5.4c1.5,3.5,2.3,6.5,2.3,8.9v3.5c0,1.5-1,2.7-3.1,3.5
		c-1.9,1.9-3.1,3.2-3.5,3.9c0.2,0.5,0.4,1,0.4,1.6H651l0.4-0.7l-0.7-0.4c-0.5,0.9-0.8,1.7-0.8,2.4v0.4l0.4,0.7h-0.4l-1.2-0.7
		l-3.9,3.1c-0.2,0-0.9,0.1-2.3,0.4c-0.5,0-1.2-0.2-2.3-0.7c-1.9,1-3.4,1.7-4.5,2.1l-0.1,0.8l-0.2,4.2h-0.3c0-0.4,0.1-2.1,0.2-4.9
		c-0.4,0.1-0.7,0.2-1,0.2C632.4,94.5,630.7,93.9,629.3,93.5L629.3,93.5z M629.6,88.5c2.8-0.3,4.8-0.7,6.1-1.2
		c0.3-5.3,0.6-12.3,1-20.8c-1.4-0.2-3.2-0.8-5.5-1.9l-0.1,0.1c-0.3,5.4-0.7,11.4-1.2,18.1C629.8,84.7,629.7,86.6,629.6,88.5
		L629.6,88.5z M631.6,56.7c1.9,0.1,3.3,0.1,4.3,0.1c0.5-0.3,0.9-0.6,1.3-0.9c0.2-4.7,0.5-9.8,0.7-15.3c-1.7-0.6-2.7-1.1-3.2-1.6
		c-0.7,0-1.3-0.1-1.9-0.2C632.5,43.3,632.1,49.2,631.6,56.7L631.6,56.7z"/>
</g>
</svg>
