<?xml version="1.0" encoding="utf-8"?>
<!-- Generator: Adobe Illustrator 27.0.0, SVG Export Plug-In . SVG Version: 6.00 Build 0)  -->
<svg version="1.1"
	 id="svg1" xmlns:inkscape="http://www.inkscape.org/namespaces/inkscape" xmlns:svg="http://www.w3.org/2000/svg" xmlns:sodipodi="http://sodipodi.sourceforge.net/DTD/sodipodi-0.dtd"
	 xmlns="http://www.w3.org/2000/svg" xmlns:xlink="http://www.w3.org/1999/xlink" x="0px" y="0px" viewBox="0 0 91.6 84.4"
	 style="enable-background:new 0 0 91.6 84.4;" xml:space="preserve">
<style type="text/css">
	.st0{fill:#800000;}
</style>
<sodipodi:namedview  bordercolor="#000000" borderopacity="0.25" id="namedview1" inkscape:current-layer="layer1" inkscape:cx="467.38023" inkscape:cy="387.82615" inkscape:deskcolor="#d1d1d1" inkscape:document-units="mm" inkscape:pagecheckerboard="0" inkscape:pageopacity="0.0" inkscape:showpageshadow="2" inkscape:window-height="1005" inkscape:window-maximized="0" inkscape:window-width="1728" inkscape:window-x="0" inkscape:window-y="38" inkscape:zoom="0.70392366" pagecolor="#ffffff">
	</sodipodi:namedview>
<g>
	<path id="path1" class="st0" d="M20.3,2.1c-2.2-0.4-3.6-0.5-4.2-0.5h-0.5c-0.3,0.1-1,0.3-2.3,0.4c-1.4,0.1-2.2,0.3-2.3,0
		c0-0.1-0.9,0.3-2.4,1C8.2,3.3,7.8,3.3,7.4,3C7,2.8,5.8,3.1,3.6,4.2L3,5.6L2.4,8.4c2.8,1.5,4.5,2,5,1.7c0.5-0.4,0.9-0.5,0.9-0.6
		c1.8,1.3,2.7,1.8,2.7,1.9c0.1,0.1,0.6,0.3,1.8,0.4c-1.1,1.4-1.8,2.2-1.8,2.2s-0.4,0.9-1,2.7c2.4,1,3.3,2,2.7,2.8
		c-0.6,0.9-1.1,1.9-1.8,2.8c-1.1,2-1.4,3.4-0.5,4.2c0.8,0.8,1.9,1.9,3.3,3.6c-0.6,0-1.4,0.3-2.2,0.6c-0.9,0.5-0.8,1.5,0.1,2.9
		c0.4,0.9,0.6,1.1,1,1c0.1,0,0.5,1.1,1.3,3.6l-1,0.6c-0.1,0-1,0.4-2.9,1.1l0.9,1l1.7,0.9c0.1,0.1-0.1,0.4-0.8,0.5
		c-0.5,0.1-0.4,0.9,0.4,2c1,1.3,1.1,2,0.6,2.4c-0.6,0.1-0.9,0.4-1,0.5c-1,0.5-1.5,0.9-1.5,1.3c-0.1,0.4-0.1,0.9-0.1,1.8
		c1.1,1.3,2,2.2,2.7,2.5c0.5,0.3,0.9,0.9,1.1,1.8c-2.2,1-3.3,1.7-3.4,1.8c0,0.1-0.8,0.6-2.2,1.7c1.1,0.1,1.8,0.1,1.8,0.3
		c0.1,0,0.5,0.1,1.3,0.5c0.3,0.1,0.4,0.4,0.1,0.9c-0.3,0.4,0.4,0.8,1.9,1.3c0.1,0.1,0.1,0.4,0,0.5c-0.3,0-1.4,0.9-3.6,2.5
		c0.3,0.8,0.5,1,0.6,1c0.1,0,1,0.5,2.7,1.4c-2.4,1.4-3.9,2.2-4.3,2.3c-0.4,0.1-0.9-0.3-1.5-1.1c-0.1,0-0.5,0-1.3-0.1
		c-0.8-0.1-0.8,0.1-0.1,0.8c-0.6,0.4-1.1,0.6-1.5,1c-0.4,0.3-0.3,0.6,0.5,1.4c0,0.1-0.1,0.3-0.6,0.3c-0.5,0-1.5,0.6-2.9,2.2
		c0.4,0.3,1,0.8,1.7,1.3c0.6,0.4,0.3,1.1-1.1,2.2l1.5,1c0.4,0.3,0.1,0.9-0.6,1.9c-0.1,0.1,0.3,0.5,0.9,0.9c0.6,0.5,1.5,1,2.4,1.5
		c2.8-1,4.5-1.4,4.8-1c0.4,0.4,1.3,0.9,2.5,1.4c0.4,0.1,0.6,0,0.6-0.4c0.3-0.5,1.3-0.6,3.3-0.5c0.8,0.1,1.3,0.1,1.3,0.3
		c0.1,0.3,1.4,0.4,3.8,0.5c0.9,0,1.5,0,1.7-0.1c0.1-0.1,1.3,0,3.6,0.3c1.1,0.1,2,0.3,2.9,0.3c1.4,0,2.5-0.3,3.4-0.5
		c1.5-0.6,2.5-1,3.1-1.1c0.1-0.1,1.7-0.3,4.5-0.5c2.8-0.1,4.5-0.3,5-0.4c0.9,0,1.3-0.1,1.4-0.3c0,0,2-0.4,6.1-0.9
		c-0.3-0.1-0.4-0.5-0.5-1c0-0.6,1.4-1.8,4.2-3.4c0-0.4,0-0.6,0-0.8c0,0-0.4-0.5-1.1-1.4c-0.1-0.1-0.1-0.4,0-0.8
		c0.3-0.3,1.1-0.8,2.7-1.3c0.5-0.1,0.8-0.4,1-0.8c0.3-0.3,0.1-1-0.4-2.3c-0.1-0.8-0.4-1.1-0.5-1.4c-0.1-0.3,0.3-0.8,1.3-1.5
		c0.3-0.1,0.4-0.5,0.1-1c-0.1-0.5,0.1-1.4,0.5-2.5v-0.1c0-0.4-0.3-0.9-0.9-1.5c-0.6-0.8-1-1.4-1.4-1.7c-0.3-0.4-0.4-0.8-0.3-1
		c0.1-0.1-0.5-0.6-2-1.3c1.4-0.4,2.2-0.5,2.3-0.5c0-0.1,0.6-0.8,1.9-2c-0.4-1.9-0.8-3.1-1-3.3c-0.3-0.1-1.3-0.6-2.8-1.4
		c1-1.5,1.5-2.3,1.5-2.3c0-0.1,0-1,0.1-2.8c-1.9-1.9-3.1-3.1-3.3-3.6c-0.4-0.4-0.6-1-0.8-1.7c1.8-2.2,2.5-3.3,2.3-3.6
		c-0.5-0.3-0.3-1.1,0.6-2.4c0.1-0.1,0.1-0.4,0-0.6c-0.1-0.3,0.1-0.9,0.6-1.9c0.4-0.9,0.6-1.4,0.8-1.4c0.1,0,0.1-0.8,0-2.3
		c-1-0.8-1.5-1.3-1.5-1.3s-0.1-0.4-0.4-0.9c-0.1-0.3,0-0.5,0.5-0.8c0.5-0.4,0.4-1.3-0.3-2.5c1-0.9,1.5-1.4,1.4-1.7
		c0-0.3-0.3-0.8-0.5-1.5c-0.1-0.4-0.5-0.5-1-0.6c-0.6,0-0.6-0.6-0.3-2c0.1-0.4,0.4-0.6,0.5-0.6c0.3-0.1,0.3-0.4-0.1-0.8
		c-1.1-2-1.8-3.2-1.8-3.2c0-0.1-0.5-0.5-1.4-1.1c-0.3-0.1-0.3-0.4,0-0.8c0.1-0.3-0.4-1.3-1.5-3.1c-0.8-0.4-1.1-0.6-1.1-0.6
		s-0.9-0.1-2.5-0.3c-1.3-0.1-2-0.1-2,0c-0.1,0-0.9-0.3-2.5-0.9c-0.8-0.3-1.3-0.3-1.3,0c-0.1,0.1-1.3,0.1-3.7,0.3
		c-0.5,0-1.8,0-3.8-0.3s-4.1-0.3-6.1-0.3c-1.3,0.1-1.9,0.1-2,0.3c0,0.1-1-0.1-2.8-0.5c-0.8-0.1-1.1-0.1-1.3,0.3
		C23.3,2.6,22.3,2.5,20.3,2.1L20.3,2.1z M38.9,10.7c1.8-0.5,2.7-0.4,2.7,0.4c0,0.6,0,1,0.3,1.1c1.7,0.5,2.7,0.8,3.1,0.8
		c0.3,0,0.5,0.1,0.9,0.4l1,1.3c0.1,0,0.9,0.6,2.4,2c-0.1,0.6-0.1,1-0.3,1c0,0-0.4,0.3-1,1.1c0.8,1.7,0.9,2.4,0.4,2.5
		c-0.5,0-0.8,0.4-0.9,0.9c-0.1,1.5,0,2.2,0.1,2.2c0.1,0.1,0.4,0.6,0.8,1.7c0.4,0.8,0.5,1.3,0.6,1.3c0,0-0.1,0.6-0.3,1.8
		c-0.5,1.3-0.9,1.9-1.1,1.8c-0.1,0-0.4,0.1-0.9,0.1c-1.1,0.8-2,1.4-2.8,1.9c-0.8,0.4-1.4,0.6-2.2,0.5c-1.9-0.3-2.9-0.3-2.9,0
		c-0.1,0.1-0.5,0.3-1.3,0.4c-2,0.1-3.2,0.1-3.4,0c0-0.3-0.3-0.3-1-0.1c-1.8,0.3-2.8,0.4-2.9,0.4c-0.1,0-2.8,0-8-0.3
		c0-1.4-0.1-2.3-0.4-2.5c-0.3-0.3-0.3-0.5-0.1-0.9c0.3-0.3,0.4-0.8,0.8-1.3c0.3-0.5,0.4-1.4,0.3-2.5c-0.1-1.4,0-2.3,0.3-2.7
		c0.3-0.5,0.4-0.8,0.1-1c-1-0.9-1.4-1.4-1.4-1.8c-0.1-0.3-0.1-0.6,0.1-1c0.8-1.4,0.9-2,0.4-2.2c-0.6-0.1-0.9-0.4-0.6-0.8
		c0.6-0.8,0.9-1.8,1-2.7c0.1-0.9,0.5-1.9,0.9-2.9c3.1-0.6,4.6-0.9,4.7-0.9c0.1,0.1,0.8,0.4,1.8,0.8c0.4,0.1,1,0.3,2.2,0.5
		c0.9,0.3,1.8,0.1,2.7-0.1c1.8-0.6,2.8-1,2.9-0.9C37.7,11,38.1,10.9,38.9,10.7L38.9,10.7z M27.8,43.8c1.3-0.1,1.9-0.1,2,0
		c0.1,0.3,0.6,0.5,1.3,0.5c1.9,0,2.8,0,2.9,0c0.1,0,0.8-0.1,2-0.1c1.7-0.1,2.4-0.3,2.5-0.3h3.3c1,1.1,1.7,2,1.8,2.4
		c0.1,0.5,0.4,0.6,0.8,0.5c0.8-0.4,1.3-0.5,1.3-0.5c0.1-0.1,1.4,0.1,3.6,0.9l-0.5,0.6c0,0.1-0.5,0.5-1.4,1.4
		c0.4,1.3,0.5,2.2,0.4,2.4c-0.3,0.4-0.3,0.5,0,0.4c0.3,0,0.6-0.1,1-0.1c0.4-0.1,0.8,0.5,1.1,1.9l-1.5,0.8c0,0-0.4,0.5-0.9,1.4
		c0.4,1,0.6,1.7,0.6,1.7c0,0.1,0.4,0.9,1,2.3c-0.1,0-0.6,0-1.3,0.1c-0.8,0.1-1,0.3-0.9,0.4c0.5,0.6,0.8,1,0.9,1
		c0.3,0.1,0.1,0.9-0.1,2.3l1.4,0.4c0,0,0.3,0.1,0.5,0.3c-2.9,1.1-4.7,1.7-5.1,1.5c-0.5-0.3-0.8-0.1-0.8,0.3l-0.4,0.9
		c0,0-0.1,0.8-0.4,2.2c0,0-0.5,0.1-1.7,0.4c-1,0.3-2,0.4-3.1,0.4c-2.3,0-3.4-0.1-3.4-0.4c0-0.3-0.4-0.4-1-0.4
		c-1.7,0.1-2.7,0.3-2.8,0.4C31,69.9,30.7,70,30.5,70c-1.8-0.4-2.7-0.5-2.7-0.6l-1.4-1.5c-1.8,0-2.7,0-2.8,0c-0.1,0-0.4,0-0.9,0
		c0.6-1.9,1-3.1,1-3.4c0.1-0.3,0.1-1.1,0-2.5c-0.3-2.8-0.3-4.3-0.3-4.5c0-0.1,0-0.4-0.1-0.8c-0.4-0.9-0.6-1.5-0.6-1.7
		c0-0.1,0.5-1.3,1.4-3.3c-0.4-0.3-1-0.5-2-0.8c-0.9-0.4-0.6-1.7,0.6-3.8c0.6-1,0.9-1.5,0.8-1.7c-0.1-0.1-0.4-0.6-0.6-1.5
		c1.1,0,2,0,2.7,0.1C26,44,26.8,43.9,27.8,43.8L27.8,43.8z"/>
	<path id="path2" d="M62.5,11.1c1.3,1.1,2.8,1.7,4.5,2V14l-0.4,0.7c0.2,0,0.4,0.1,0.4,0.3l0.6-0.3h0.6l1,0.6l-0.3,1.6v0.3
		c1.5,0,2.2,0.7,2.2,2V21c0,0.2-0.8,1.2-2.5,2.9l-1.6-1c0,0.3-0.4,0.8-1.3,1.3h-1l-1.9-1.3h-0.3c-0.1,0-0.7,0.4-1.6,1.3h-0.6
		c-1.1-1.5-2.2-2.3-3.2-2.6c0-0.6-0.8-1.2-2.3-1.9c-0.4-1.3-0.7-1.9-0.9-1.9c0.2-1.4,1.9-3.1,5.1-5.1h1.9
		C60.8,12,61.4,11.5,62.5,11.1L62.5,11.1z M62.1,14v1h1v-1H62.1z M59.9,16.2v0.9h0.9v-0.9H59.9z M64.4,16.2v0.9h0.9v-0.9H64.4z
		 M57.6,18.4v1h1v-1H57.6z M62.1,18.4v1h1v-1H62.1z M66.6,18.4v1h1v-1H66.6z M59.6,21.3c0.1,0.4,0.3,0.7,0.6,0.7
		c0.4,0,0.6-0.2,0.6-0.7v-0.6h-0.6C59.8,20.8,59.6,21,59.6,21.3z M64.4,20.7v0.9h0.9v-0.9H64.4z M56,22.6h0.7v1.3H56
		c-0.4,0-0.6-0.2-0.6-0.7C55.5,22.8,55.7,22.6,56,22.6L56,22.6z M51.3,31.2h0.7l1.2,1.9h0.7c0.8-0.7,1.5-1,1.9-1
		c1.4,0.4,2.2,0.7,2.6,0.7c1.4-0.7,2.4-1,2.9-1c0.1,0.4,0.6,0.9,1.6,1.3l1.6-1h0.3c0.6,0.6,1.8,1.3,3.5,2c0.9,1.5,1.3,2.5,1.3,3.2
		l-1.3,1.3v1.2l1.3,1.3v0.3c0,0.4-0.2,0.7-0.6,0.7c-0.4-0.5-0.7-1.1-0.7-1.6h-1.2c-0.2,0-0.7,0.5-1.6,1.6H64v-1.3l1.2-1.3v-0.9h-0.6
		l-1.6,1.2h-1.3c0-1.7-0.7-2.5-2.2-2.5c0-0.3-1.2-1.5-3.5-3.5h-0.6c-0.5,0-0.8,0.5-1,1.6h-1.6c0-1.5-0.6-2.2-1.9-2.2h-0.3v-1.3
		C50.7,31.4,50.9,31.2,51.3,31.2L51.3,31.2z M64.4,33.7L64,35l0.6,0.3c0.3,0,0.6-0.3,1-0.9c0-0.4-0.2-0.7-0.7-0.7L64.4,33.7z
		 M44.6,33.7h0.9v1.6h-1.6v-0.9C44,34,44.2,33.7,44.6,33.7L44.6,33.7z M48.4,33.7H50v1.6h-1.6V33.7z M61.5,36.6v0.3
		c0.1,0.4,0.3,0.7,0.6,0.7h0.4c0.4,0,0.6-0.2,0.6-0.7V36h-1C61.7,36.1,61.5,36.3,61.5,36.6L61.5,36.6z M42.3,36h1v0.9
		c0,0.4-0.2,0.7-0.7,0.7c-0.3,0-0.6-0.3-0.9-1C41.8,36.2,42,36,42.3,36L42.3,36z M46.2,36h1.6v0.9c0,0.4-0.2,0.7-0.7,0.7h-0.3
		c-0.4,0-0.6-0.2-0.6-0.7L46.2,36z M50.6,36h1.6v0.9c0,0.4-0.2,0.7-0.7,0.7h-0.3c-0.4,0-0.6-0.2-0.6-0.7L50.6,36z M55.4,36h1.3
		l0.3,1.6v0.3h-1.3c-0.3,0-0.6-0.3-1-1v-0.3C54.8,36.2,55,36,55.4,36L55.4,36z M66.3,36.3v1c0.1,0.4,0.3,0.6,0.7,0.6h0.9v-1
		c0-0.4-0.2-0.6-0.6-0.6H66.3z M57.3,38.2h1.6v1l-0.3,0.6C57.7,39.6,57.3,39.1,57.3,38.2L57.3,38.2z M59.6,40.5h1.6v1.6h-1
		c-0.4,0-0.6-0.2-0.6-0.7L59.6,40.5z M61.8,42.7h1.6v1.6h-1.6V42.7z M66.3,42.7h1.6c0,0.7,0.6,1.6,1.9,2.9v0.3c0,0.3-0.3,0.6-0.9,1
		c-0.2,0-0.6-0.7-1.3-2.2l-1.3-0.4L66.3,42.7z M60.8,44.9l0.4,0.6v0.3c0,0.4-0.2,0.7-0.7,0.7l-0.3-0.7v-0.3
		C60.3,45.1,60.5,44.9,60.8,44.9z M64,44.9h1.6v1.6H64V44.9z M61.8,47.1h1.6v1.6h-1.6V47.1z M66.3,47.1h1.6v1.6h-1.6V47.1z M64,49.4
		h1.6V51H64V49.4z M69.1,49.4l0.3,0.6v0.3c0,0.4-0.2,0.7-0.6,0.7h-0.3v-1C68.6,49.6,68.8,49.4,69.1,49.4L69.1,49.4z M62.1,51.6h1.3
		v1.6c-1.1,0.2-1.6,0.5-1.6,1v1.3h1.6c0.2-1.1,0.5-1.6,1-1.6h1.3c0.1,1.1,0.4,1.6,0.9,1.6h0.7c0.4,0,0.6-0.2,0.6-0.7v-0.6l-1.6-1.3
		v-1.3h1.9c0,0.8,0.7,1.6,2,2.6v0.6c-0.9,1-1.3,1.5-1.3,1.6v0.4c0.4,1.5,0.6,2.3,0.6,2.5l-0.9,1.3v1c0.6,0.8,0.9,1.7,0.9,2.9
		c-0.5,0-0.8,0.5-0.9,1.6l0.9,1.6c0,0.5-0.3,1.3-0.9,2.5c0,0.4,1.1,1.5,3.2,3.2c0.2,0,0.8-0.4,1.9-1.3h0.3c1,0.9,1.7,1.3,2.3,1.3
		c1-0.7,1.6-1,1.9-1l1.6,1H80c0.5,0,1.5-0.2,2.9-0.7c0.8,0.4,1.6,0.7,2.6,0.7L86,73c0.1,0.4,0.3,0.7,0.7,0.7l-0.4,0.6
		c0.2,0.4,0.4,0.7,0.4,1h0.6l1.6-1.3l0.6,1v0.6l-0.6,1v0.9l0.6,1c0,0.3-0.3,0.6-0.9,1c-0.5-0.4-0.9-0.7-1-0.7H87
		c-0.7,1.3-1.5,1.9-2.3,1.9L81.9,81l-1.6-0.4c-1.1,0.7-1.8,1-2.2,1l-1.9-1c-0.2,0-1.7,0.1-4.5,0.4H71c-2.2,0-3.4,0-3.5,0h-1
		l-1.3,0.9l-2.8-1.3c-1.6,0.9-2.7,1.3-3.2,1.3c0-0.3-0.3-0.6-0.9-0.9h-0.7v1.9h-2.2l-1.9-2.3h-1.6v-1.9h-1c0,1.2-1.2,2.2-3.5,2.9
		l-2.3-1c-1.2,0.2-2,0.4-2.6,0.4c-1.9-0.4-2.8-1.3-2.8-2.9c0.3,0,0.6-0.3,0.9-1v-1l-0.3-0.6c1.6,0,3-0.7,4.2-2.2
		c0.3,0,1.2-0.2,2.5-0.7c0.9,0.4,1.6,0.7,2.3,0.7l1.6-1h1.3c1.6,0.7,2.8,1.7,3.5,2.9H56l1.3-1.9c1.7,0,3-1.1,3.8-3.2l-0.4-1.9
		c0.2-1.2,0.4-2,0.4-2.6c0-0.2-0.4-0.8-1.3-1.9v-0.3l1.3-1.6v-1c-0.9-0.9-1.3-1.5-1.3-1.6v-0.6c1.1-0.9,1.6-1.8,1.6-2.6
		c-1.1,0-1.6-0.4-1.6-1.3C61.1,52.7,61.9,51.6,62.1,51.6L62.1,51.6z M64,57c0.1,0.4,0.3,0.6,0.6,0.6c0.3,0,0.6-0.3,1-0.9
		c0-0.4-0.2-0.7-0.7-0.7C64.7,56.1,64.4,56.4,64,57L64,57z M61.5,58.9l1,1.3c0.8-0.3,1.2-0.6,1.2-1v-0.3c0-0.3-0.3-0.6-0.9-1h-0.3
		C62.3,58,62,58.3,61.5,58.9L61.5,58.9z M65.9,59.3v0.7c0.2,0,0.5,0.1,1,0.3c0.4-0.2,0.7-0.3,0.9-0.3v-1.3c-0.4,0-0.6-0.1-0.6-0.3
		C66.4,58.6,65.9,58.9,65.9,59.3L65.9,59.3z M64,60.8v0.4c0,0.3,0.3,0.6,0.9,0.9c0.3,0,0.6-0.3,1-0.9c-0.2-0.4-0.3-0.8-0.3-1h-1
		C64.3,60.3,64,60.5,64,60.8L64,60.8z M61.8,63.4c0,0.3,0.3,0.6,1,1c0.4,0,0.6-0.2,0.6-0.7c-0.2-0.4-0.3-0.7-0.3-0.9h-0.6
		C62,62.9,61.8,63.1,61.8,63.4L61.8,63.4z M66.3,63.4c0.1,0.4,0.3,0.6,0.7,0.6h0.6v-0.6c0-0.4-0.2-0.6-0.6-0.6
		C66.5,62.9,66.3,63.1,66.3,63.4z M64,65.6c0,0.3,0.3,0.6,0.9,1c0.4,0,0.7-0.2,0.7-0.6v-0.4c0-0.4-0.2-0.6-0.7-0.6h-0.3
		C64.3,65.1,64,65.3,64,65.6L64,65.6z M66.3,67.9c0.1,0.4,0.3,0.6,0.7,0.6h0.6v-0.6c0-0.4-0.2-0.6-0.6-0.6
		C66.5,67.3,66.3,67.5,66.3,67.9z M62.1,67.6v0.9h1v-0.9H62.1z M64.4,69.8v1h0.9v-1H64.4z M62.1,72V73h1V72H62.1z M66.6,72V73h1V72
		H66.6z M46.5,74.2v1h1v-1H46.5z M50.6,74.9c0.1,0.4,0.3,0.6,0.6,0.6c0.4,0,0.7-0.2,0.7-0.6v-0.7h-0.7
		C50.9,74.3,50.6,74.5,50.6,74.9z M59.9,74.2v1h0.9v-1H59.9z M64.4,74.2v1h0.9v-1H64.4z M68.8,74.2v1h0.9v-1H68.8z M73.3,74.2v1h0.9
		v-1H73.3z M77.7,74.2v1H79v-1H77.7z M81.9,74.9c0.1,0.4,0.3,0.6,0.7,0.6c0.4,0,0.6-0.2,0.6-0.6v-0.7h-0.6
		C82.1,74.3,81.9,74.5,81.9,74.9z M48.7,76.8v0.6h0.7c0.4,0,0.6-0.2,0.6-0.6c0-0.4-0.2-0.7-0.6-0.7C48.9,76.2,48.7,76.4,48.7,76.8z
		 M80,76.1v1.3h0.7c0.4,0,0.6-0.2,0.6-0.6c0-0.4-0.2-0.7-0.6-0.7L80,76.1z M44.3,76.5v0.9h0.9v-0.9H44.3z M53.2,76.5v0.9h1v-0.9
		H53.2z M57.6,76.5v0.9h1v-0.9H57.6z M62.1,76.5v0.9h1v-0.9H62.1z M66.6,76.5v0.9h1v-0.9H66.6z M71,76.5v0.9h1v-0.9H71z M75.5,76.5
		v0.9h1v-0.9H75.5z M84.4,76.5v0.9h1v-0.9H84.4z M46.5,78.7v1h1v-1H46.5z M55.4,78.7v1h1v-1H55.4z M59.9,78.7v1h0.9v-1H59.9z
		 M64.4,78.7v1h0.9v-1H64.4z M68.8,78.7v1h0.9v-1H68.8z M73.3,78.7v1h0.9v-1H73.3z M77.7,78.7v1h0.9v-1H77.7z M82.2,78.7v1h0.9v-1
		H82.2z M89.3,72.4h1V74h-1c-0.4,0-0.6-0.2-0.6-0.6v-0.3C88.7,72.7,89,72.4,89.3,72.4L89.3,72.4z"/>
</g>
</svg>
